%
M48
M72
T01C0.01378
T02C0.02559
T03C0.03150
T04C0.03400
T05C0.03543
T06C0.03600
T07C0.03800
T08C0.04000
T09C0.06929
%
T01
X135174Y79489
X135174Y99174
X206024Y40670
X237520Y40670
X298374Y60774
X355631Y123347
X372727Y206790
X366654Y216880
X387914Y232796
X344213Y247757
X333190Y289883
X318623Y288702
X369774Y325374
X324135Y363505
X229646Y343820
X165174Y378774
X101694Y343820
X98574Y246774
T02
X36733Y375316
X36733Y355631
X56418Y387127
X123347Y320198
X135158Y280828
X131221Y245394
X113505Y219804
X62324Y158780
X62324Y141064
X62324Y125316
X74135Y111536
X52481Y95788
X45591Y103662
X45591Y113505
X30828Y87914
X37717Y80040
X44607Y74135
X60355Y87914
X72166Y72166
X115473Y111536
X115473Y150906
X174528Y182402
X190276Y206024
X225709Y209961
X225709Y217835
X229646Y247363
X209961Y276891
X178465Y247363
X261143Y245394
X261143Y261143
X261143Y217835
X269017Y190276
X309371Y187324
X337914Y176497
X335946Y158780
X363111Y180434
X369410Y152875
X335552Y125316
X308387Y127284
X292245Y138702
X272954Y119410
X290670Y103662
X312324Y87914
X347757Y80040
X375316Y80040
X269017Y56418
X245394Y83977
X382402Y220985
X380828Y248150
X386143Y276891
X387127Y304450
X339883Y296576
X324135Y308387
X324135Y324135
X316261Y343820
X335946Y351694
X304450Y391064
X269017Y391064
X254450Y385552
X254450Y365473
X147954Y365473
X320198Y229646
X345394Y239489
X391851Y353662
T03
X126910Y388426
X126910Y378426
X126910Y368426
X126910Y358426
X126910Y348426
X126910Y338426
T04
X31103Y99607
X45473Y142009
X31103Y156607
X45473Y199009
X147835Y198812
X164961Y156804
X147835Y141812
X164961Y99804
T05
X298308Y112599
X290788Y112599
X283269Y112599
T06
X36733Y237520
X36733Y257220
X80025Y296576
X99725Y296576
X209946Y300513
X229646Y300513
X261128Y300513
X280828Y300513
T07
X305946Y211891
X315946Y211891
X325946Y211891
X335946Y211891
X345946Y211891
X355946Y211891
X365946Y211891
X365946Y221891
X365946Y231891
X365946Y241891
X365946Y251891
X365946Y261891
X365946Y271891
X365946Y281891
X365946Y291891
X365946Y301891
X365946Y311891
X355946Y311891
X355946Y301891
X355946Y291891
X365946Y321891
X365946Y331891
X355946Y331891
X365946Y341891
X305946Y341891
X305946Y331891
X305946Y321891
X305946Y311891
X305946Y301891
X305946Y291891
X305946Y281891
X305946Y271891
X305946Y261891
X305946Y251891
X305946Y241891
X305946Y231891
X305946Y221891
T08
X66103Y202087
X76103Y202087
X86103Y202087
X86103Y182402
X76103Y182402
X66103Y182402
X109410Y182402
X119410Y182402
X129410Y182402
X129410Y202087
X119410Y202087
X109410Y202087
X194213Y170591
X194213Y150891
X194213Y127284
X194213Y107584
X237520Y107584
X237520Y127284
X237520Y150891
X237520Y170591
X215867Y188293
X215867Y207993
X264765Y339883
X274765Y339883
X284765Y339883
X378032Y363269
X378032Y373269
X378032Y383269
X388032Y383269
X388032Y373269
X388032Y363269
X388190Y193465
X388190Y183465
X388190Y173465
X388190Y163465
X378190Y163465
X378190Y173465
X378190Y183465
X378190Y193465
X387127Y145473
X387127Y135473
X387127Y125473
X387127Y115473
T09
X20670Y20670
X30670Y20670
X40670Y20670
X50670Y20670
X60670Y20670
X95473Y20670
X105473Y20670
X115473Y20670
X125473Y20670
X135473Y20670
X135473Y60670
X125473Y60670
X115473Y60670
X105473Y60670
X95473Y60670
X60670Y60670
X50670Y60670
X40670Y60670
X30670Y60670
X20670Y60670
X201772Y60670
X211772Y60670
X221772Y60670
X231772Y60670
X241772Y60670
X241772Y20670
X231772Y20670
X221772Y20670
X211772Y20670
X201772Y20670
X339568Y20670
X349568Y20670
X359568Y20670
X369568Y20670
X379568Y20670
X379568Y60670
X369568Y60670
X359568Y60670
X349568Y60670
X339568Y60670
M30
