G75*
%MOIN*%
%OFA0B0*%
%FSLAX25Y25*%
%IPPOS*%
%LPD*%
%AMOC8*
5,1,8,0,0,1.08239X$1,22.5*
%
%ADD10C,0.00000*%
%ADD11C,0.00500*%
D10*
X0009174Y0009174D02*
X0009174Y0402875D01*
X0398938Y0403269D01*
X0398938Y0009568D01*
X0009174Y0009174D01*
D11*
X0263229Y0024410D02*
X0278977Y0024410D01*
X0279101Y0024412D01*
X0279224Y0024418D01*
X0279348Y0024427D01*
X0279470Y0024441D01*
X0279593Y0024458D01*
X0279715Y0024480D01*
X0279836Y0024505D01*
X0279956Y0024534D01*
X0280075Y0024566D01*
X0280194Y0024603D01*
X0280311Y0024643D01*
X0280426Y0024686D01*
X0280541Y0024734D01*
X0280653Y0024785D01*
X0280764Y0024839D01*
X0280874Y0024897D01*
X0280981Y0024958D01*
X0281087Y0025023D01*
X0281190Y0025091D01*
X0281291Y0025162D01*
X0281390Y0025236D01*
X0281487Y0025313D01*
X0281581Y0025394D01*
X0281672Y0025477D01*
X0281761Y0025563D01*
X0281847Y0025652D01*
X0281930Y0025743D01*
X0282011Y0025837D01*
X0282088Y0025934D01*
X0282162Y0026033D01*
X0282233Y0026134D01*
X0282301Y0026237D01*
X0282366Y0026343D01*
X0282427Y0026450D01*
X0282485Y0026560D01*
X0282539Y0026671D01*
X0282590Y0026783D01*
X0282638Y0026898D01*
X0282681Y0027013D01*
X0282721Y0027130D01*
X0282758Y0027249D01*
X0282790Y0027368D01*
X0282819Y0027488D01*
X0282844Y0027609D01*
X0282866Y0027731D01*
X0282883Y0027854D01*
X0282897Y0027976D01*
X0282906Y0028100D01*
X0282912Y0028223D01*
X0282914Y0028347D01*
X0282912Y0028471D01*
X0282906Y0028594D01*
X0282897Y0028718D01*
X0282883Y0028840D01*
X0282866Y0028963D01*
X0282844Y0029085D01*
X0282819Y0029206D01*
X0282790Y0029326D01*
X0282758Y0029445D01*
X0282721Y0029564D01*
X0282681Y0029681D01*
X0282638Y0029796D01*
X0282590Y0029911D01*
X0282539Y0030023D01*
X0282485Y0030134D01*
X0282427Y0030244D01*
X0282366Y0030351D01*
X0282301Y0030457D01*
X0282233Y0030560D01*
X0282162Y0030661D01*
X0282088Y0030760D01*
X0282011Y0030857D01*
X0281930Y0030951D01*
X0281847Y0031042D01*
X0281761Y0031131D01*
X0281672Y0031217D01*
X0281581Y0031300D01*
X0281487Y0031381D01*
X0281390Y0031458D01*
X0281291Y0031532D01*
X0281190Y0031603D01*
X0281087Y0031671D01*
X0280981Y0031736D01*
X0280874Y0031797D01*
X0280764Y0031855D01*
X0280653Y0031909D01*
X0280541Y0031960D01*
X0280426Y0032008D01*
X0280311Y0032051D01*
X0280194Y0032091D01*
X0280075Y0032128D01*
X0279956Y0032160D01*
X0279836Y0032189D01*
X0279715Y0032214D01*
X0279593Y0032236D01*
X0279470Y0032253D01*
X0279348Y0032267D01*
X0279224Y0032276D01*
X0279101Y0032282D01*
X0278977Y0032284D01*
X0263229Y0032284D01*
X0263105Y0032282D01*
X0262982Y0032276D01*
X0262858Y0032267D01*
X0262736Y0032253D01*
X0262613Y0032236D01*
X0262491Y0032214D01*
X0262370Y0032189D01*
X0262250Y0032160D01*
X0262131Y0032128D01*
X0262012Y0032091D01*
X0261895Y0032051D01*
X0261780Y0032008D01*
X0261665Y0031960D01*
X0261553Y0031909D01*
X0261442Y0031855D01*
X0261332Y0031797D01*
X0261225Y0031736D01*
X0261119Y0031671D01*
X0261016Y0031603D01*
X0260915Y0031532D01*
X0260816Y0031458D01*
X0260719Y0031381D01*
X0260625Y0031300D01*
X0260534Y0031217D01*
X0260445Y0031131D01*
X0260359Y0031042D01*
X0260276Y0030951D01*
X0260195Y0030857D01*
X0260118Y0030760D01*
X0260044Y0030661D01*
X0259973Y0030560D01*
X0259905Y0030457D01*
X0259840Y0030351D01*
X0259779Y0030244D01*
X0259721Y0030134D01*
X0259667Y0030023D01*
X0259616Y0029911D01*
X0259568Y0029796D01*
X0259525Y0029681D01*
X0259485Y0029564D01*
X0259448Y0029445D01*
X0259416Y0029326D01*
X0259387Y0029206D01*
X0259362Y0029085D01*
X0259340Y0028963D01*
X0259323Y0028840D01*
X0259309Y0028718D01*
X0259300Y0028594D01*
X0259294Y0028471D01*
X0259292Y0028347D01*
X0259294Y0028223D01*
X0259300Y0028100D01*
X0259309Y0027976D01*
X0259323Y0027854D01*
X0259340Y0027731D01*
X0259362Y0027609D01*
X0259387Y0027488D01*
X0259416Y0027368D01*
X0259448Y0027249D01*
X0259485Y0027130D01*
X0259525Y0027013D01*
X0259568Y0026898D01*
X0259616Y0026783D01*
X0259667Y0026671D01*
X0259721Y0026560D01*
X0259779Y0026450D01*
X0259840Y0026343D01*
X0259905Y0026237D01*
X0259973Y0026134D01*
X0260044Y0026033D01*
X0260118Y0025934D01*
X0260195Y0025837D01*
X0260276Y0025743D01*
X0260359Y0025652D01*
X0260445Y0025563D01*
X0260534Y0025477D01*
X0260625Y0025394D01*
X0260719Y0025313D01*
X0260816Y0025236D01*
X0260915Y0025162D01*
X0261016Y0025091D01*
X0261119Y0025023D01*
X0261225Y0024958D01*
X0261332Y0024897D01*
X0261442Y0024839D01*
X0261553Y0024785D01*
X0261665Y0024734D01*
X0261780Y0024686D01*
X0261895Y0024643D01*
X0262012Y0024603D01*
X0262131Y0024566D01*
X0262250Y0024534D01*
X0262370Y0024505D01*
X0262491Y0024480D01*
X0262613Y0024458D01*
X0262736Y0024441D01*
X0262858Y0024427D01*
X0262982Y0024418D01*
X0263105Y0024412D01*
X0263229Y0024410D01*
X0302599Y0024410D02*
X0318347Y0024410D01*
X0318471Y0024412D01*
X0318594Y0024418D01*
X0318718Y0024427D01*
X0318840Y0024441D01*
X0318963Y0024458D01*
X0319085Y0024480D01*
X0319206Y0024505D01*
X0319326Y0024534D01*
X0319445Y0024566D01*
X0319564Y0024603D01*
X0319681Y0024643D01*
X0319796Y0024686D01*
X0319911Y0024734D01*
X0320023Y0024785D01*
X0320134Y0024839D01*
X0320244Y0024897D01*
X0320351Y0024958D01*
X0320457Y0025023D01*
X0320560Y0025091D01*
X0320661Y0025162D01*
X0320760Y0025236D01*
X0320857Y0025313D01*
X0320951Y0025394D01*
X0321042Y0025477D01*
X0321131Y0025563D01*
X0321217Y0025652D01*
X0321300Y0025743D01*
X0321381Y0025837D01*
X0321458Y0025934D01*
X0321532Y0026033D01*
X0321603Y0026134D01*
X0321671Y0026237D01*
X0321736Y0026343D01*
X0321797Y0026450D01*
X0321855Y0026560D01*
X0321909Y0026671D01*
X0321960Y0026783D01*
X0322008Y0026898D01*
X0322051Y0027013D01*
X0322091Y0027130D01*
X0322128Y0027249D01*
X0322160Y0027368D01*
X0322189Y0027488D01*
X0322214Y0027609D01*
X0322236Y0027731D01*
X0322253Y0027854D01*
X0322267Y0027976D01*
X0322276Y0028100D01*
X0322282Y0028223D01*
X0322284Y0028347D01*
X0322282Y0028471D01*
X0322276Y0028594D01*
X0322267Y0028718D01*
X0322253Y0028840D01*
X0322236Y0028963D01*
X0322214Y0029085D01*
X0322189Y0029206D01*
X0322160Y0029326D01*
X0322128Y0029445D01*
X0322091Y0029564D01*
X0322051Y0029681D01*
X0322008Y0029796D01*
X0321960Y0029911D01*
X0321909Y0030023D01*
X0321855Y0030134D01*
X0321797Y0030244D01*
X0321736Y0030351D01*
X0321671Y0030457D01*
X0321603Y0030560D01*
X0321532Y0030661D01*
X0321458Y0030760D01*
X0321381Y0030857D01*
X0321300Y0030951D01*
X0321217Y0031042D01*
X0321131Y0031131D01*
X0321042Y0031217D01*
X0320951Y0031300D01*
X0320857Y0031381D01*
X0320760Y0031458D01*
X0320661Y0031532D01*
X0320560Y0031603D01*
X0320457Y0031671D01*
X0320351Y0031736D01*
X0320244Y0031797D01*
X0320134Y0031855D01*
X0320023Y0031909D01*
X0319911Y0031960D01*
X0319796Y0032008D01*
X0319681Y0032051D01*
X0319564Y0032091D01*
X0319445Y0032128D01*
X0319326Y0032160D01*
X0319206Y0032189D01*
X0319085Y0032214D01*
X0318963Y0032236D01*
X0318840Y0032253D01*
X0318718Y0032267D01*
X0318594Y0032276D01*
X0318471Y0032282D01*
X0318347Y0032284D01*
X0302599Y0032284D01*
X0302475Y0032282D01*
X0302352Y0032276D01*
X0302228Y0032267D01*
X0302106Y0032253D01*
X0301983Y0032236D01*
X0301861Y0032214D01*
X0301740Y0032189D01*
X0301620Y0032160D01*
X0301501Y0032128D01*
X0301382Y0032091D01*
X0301265Y0032051D01*
X0301150Y0032008D01*
X0301035Y0031960D01*
X0300923Y0031909D01*
X0300812Y0031855D01*
X0300702Y0031797D01*
X0300595Y0031736D01*
X0300489Y0031671D01*
X0300386Y0031603D01*
X0300285Y0031532D01*
X0300186Y0031458D01*
X0300089Y0031381D01*
X0299995Y0031300D01*
X0299904Y0031217D01*
X0299815Y0031131D01*
X0299729Y0031042D01*
X0299646Y0030951D01*
X0299565Y0030857D01*
X0299488Y0030760D01*
X0299414Y0030661D01*
X0299343Y0030560D01*
X0299275Y0030457D01*
X0299210Y0030351D01*
X0299149Y0030244D01*
X0299091Y0030134D01*
X0299037Y0030023D01*
X0298986Y0029911D01*
X0298938Y0029796D01*
X0298895Y0029681D01*
X0298855Y0029564D01*
X0298818Y0029445D01*
X0298786Y0029326D01*
X0298757Y0029206D01*
X0298732Y0029085D01*
X0298710Y0028963D01*
X0298693Y0028840D01*
X0298679Y0028718D01*
X0298670Y0028594D01*
X0298664Y0028471D01*
X0298662Y0028347D01*
X0298664Y0028223D01*
X0298670Y0028100D01*
X0298679Y0027976D01*
X0298693Y0027854D01*
X0298710Y0027731D01*
X0298732Y0027609D01*
X0298757Y0027488D01*
X0298786Y0027368D01*
X0298818Y0027249D01*
X0298855Y0027130D01*
X0298895Y0027013D01*
X0298938Y0026898D01*
X0298986Y0026783D01*
X0299037Y0026671D01*
X0299091Y0026560D01*
X0299149Y0026450D01*
X0299210Y0026343D01*
X0299275Y0026237D01*
X0299343Y0026134D01*
X0299414Y0026033D01*
X0299488Y0025934D01*
X0299565Y0025837D01*
X0299646Y0025743D01*
X0299729Y0025652D01*
X0299815Y0025563D01*
X0299904Y0025477D01*
X0299995Y0025394D01*
X0300089Y0025313D01*
X0300186Y0025236D01*
X0300285Y0025162D01*
X0300386Y0025091D01*
X0300489Y0025023D01*
X0300595Y0024958D01*
X0300702Y0024897D01*
X0300812Y0024839D01*
X0300923Y0024785D01*
X0301035Y0024734D01*
X0301150Y0024686D01*
X0301265Y0024643D01*
X0301382Y0024603D01*
X0301501Y0024566D01*
X0301620Y0024534D01*
X0301740Y0024505D01*
X0301861Y0024480D01*
X0301983Y0024458D01*
X0302106Y0024441D01*
X0302228Y0024427D01*
X0302352Y0024418D01*
X0302475Y0024412D01*
X0302599Y0024410D01*
M02*
