G75*
%MOIN*%
%OFA0B0*%
%FSLAX25Y25*%
%IPPOS*%
%LPD*%
%AMOC8*
5,1,8,0,0,1.08239X$1,22.5*
%
%ADD10C,0.00000*%
%ADD11C,0.00600*%
%ADD12C,0.00039*%
%ADD13C,0.00500*%
D10*
X0009174Y0009174D02*
X0009174Y0402875D01*
X0398938Y0403269D01*
X0398938Y0009568D01*
X0009174Y0009174D01*
D11*
X0156108Y0231127D02*
X0156179Y0231129D01*
X0156250Y0231135D01*
X0156320Y0231144D01*
X0156390Y0231158D01*
X0156459Y0231175D01*
X0156526Y0231195D01*
X0156593Y0231220D01*
X0156658Y0231248D01*
X0156722Y0231279D01*
X0156784Y0231314D01*
X0156844Y0231352D01*
X0156902Y0231393D01*
X0156957Y0231437D01*
X0157010Y0231485D01*
X0157060Y0231535D01*
X0157108Y0231587D01*
X0157153Y0231642D01*
X0157194Y0231700D01*
X0157233Y0231760D01*
X0157268Y0231821D01*
X0157300Y0231885D01*
X0157328Y0231950D01*
X0157353Y0232016D01*
X0157530Y0232550D02*
X0154686Y0236105D01*
X0154863Y0236639D02*
X0154888Y0236705D01*
X0154916Y0236770D01*
X0154948Y0236834D01*
X0154983Y0236895D01*
X0155022Y0236955D01*
X0155063Y0237013D01*
X0155108Y0237068D01*
X0155156Y0237120D01*
X0155206Y0237170D01*
X0155259Y0237218D01*
X0155315Y0237262D01*
X0155372Y0237303D01*
X0155432Y0237341D01*
X0155494Y0237376D01*
X0155558Y0237407D01*
X0155623Y0237435D01*
X0155690Y0237460D01*
X0155757Y0237480D01*
X0155826Y0237497D01*
X0155896Y0237511D01*
X0155966Y0237520D01*
X0156037Y0237526D01*
X0156108Y0237528D01*
X0156179Y0237526D01*
X0156250Y0237520D01*
X0156320Y0237511D01*
X0156390Y0237497D01*
X0156459Y0237480D01*
X0156526Y0237460D01*
X0156593Y0237435D01*
X0156658Y0237407D01*
X0156722Y0237376D01*
X0156784Y0237341D01*
X0156844Y0237303D01*
X0156902Y0237262D01*
X0156957Y0237218D01*
X0157010Y0237170D01*
X0157060Y0237120D01*
X0157108Y0237068D01*
X0157153Y0237013D01*
X0157194Y0236955D01*
X0157233Y0236895D01*
X0157268Y0236834D01*
X0157300Y0236770D01*
X0157328Y0236705D01*
X0157353Y0236639D01*
X0154863Y0236639D02*
X0154803Y0236512D01*
X0154747Y0236383D01*
X0154694Y0236253D01*
X0154644Y0236121D01*
X0154598Y0235988D01*
X0154556Y0235854D01*
X0154517Y0235719D01*
X0154481Y0235582D01*
X0154450Y0235445D01*
X0154422Y0235307D01*
X0154397Y0235169D01*
X0154377Y0235030D01*
X0154360Y0234890D01*
X0154347Y0234750D01*
X0154338Y0234609D01*
X0154332Y0234469D01*
X0154330Y0234328D01*
X0157886Y0234328D02*
X0157884Y0234469D01*
X0157878Y0234609D01*
X0157869Y0234750D01*
X0157856Y0234890D01*
X0157839Y0235030D01*
X0157819Y0235169D01*
X0157794Y0235307D01*
X0157766Y0235445D01*
X0157735Y0235582D01*
X0157699Y0235719D01*
X0157660Y0235854D01*
X0157618Y0235988D01*
X0157572Y0236121D01*
X0157522Y0236253D01*
X0157469Y0236383D01*
X0157413Y0236512D01*
X0157353Y0236639D01*
X0154330Y0234328D02*
X0154332Y0234187D01*
X0154338Y0234047D01*
X0154347Y0233906D01*
X0154360Y0233766D01*
X0154377Y0233626D01*
X0154397Y0233487D01*
X0154422Y0233349D01*
X0154450Y0233211D01*
X0154481Y0233074D01*
X0154517Y0232937D01*
X0154556Y0232802D01*
X0154598Y0232668D01*
X0154644Y0232535D01*
X0154694Y0232403D01*
X0154747Y0232273D01*
X0154803Y0232144D01*
X0154863Y0232017D01*
X0154863Y0232016D02*
X0154888Y0231950D01*
X0154916Y0231885D01*
X0154948Y0231821D01*
X0154983Y0231760D01*
X0155022Y0231700D01*
X0155063Y0231642D01*
X0155108Y0231587D01*
X0155156Y0231535D01*
X0155206Y0231485D01*
X0155259Y0231437D01*
X0155315Y0231393D01*
X0155372Y0231352D01*
X0155432Y0231314D01*
X0155494Y0231279D01*
X0155558Y0231248D01*
X0155623Y0231220D01*
X0155690Y0231195D01*
X0155757Y0231175D01*
X0155826Y0231158D01*
X0155896Y0231144D01*
X0155966Y0231135D01*
X0156037Y0231129D01*
X0156108Y0231127D01*
X0160484Y0231128D02*
X0164040Y0231128D01*
X0162262Y0231128D02*
X0162262Y0237528D01*
X0164040Y0236105D01*
X0166378Y0230416D02*
X0169223Y0230416D01*
X0174584Y0232017D02*
X0174644Y0232144D01*
X0174700Y0232273D01*
X0174753Y0232403D01*
X0174803Y0232535D01*
X0174849Y0232668D01*
X0174891Y0232802D01*
X0174930Y0232937D01*
X0174966Y0233074D01*
X0174997Y0233211D01*
X0175025Y0233349D01*
X0175050Y0233487D01*
X0175070Y0233626D01*
X0175087Y0233766D01*
X0175100Y0233906D01*
X0175109Y0234047D01*
X0175115Y0234187D01*
X0175117Y0234328D01*
X0171562Y0234328D02*
X0171564Y0234469D01*
X0171570Y0234609D01*
X0171579Y0234750D01*
X0171592Y0234890D01*
X0171609Y0235030D01*
X0171629Y0235169D01*
X0171654Y0235307D01*
X0171682Y0235445D01*
X0171713Y0235582D01*
X0171749Y0235719D01*
X0171788Y0235854D01*
X0171830Y0235988D01*
X0171876Y0236121D01*
X0171926Y0236253D01*
X0171979Y0236383D01*
X0172035Y0236512D01*
X0172095Y0236639D01*
X0171917Y0236105D02*
X0174761Y0232550D01*
X0173339Y0231127D02*
X0173268Y0231129D01*
X0173197Y0231135D01*
X0173127Y0231144D01*
X0173057Y0231158D01*
X0172988Y0231175D01*
X0172921Y0231195D01*
X0172854Y0231220D01*
X0172789Y0231248D01*
X0172725Y0231279D01*
X0172663Y0231314D01*
X0172603Y0231352D01*
X0172546Y0231393D01*
X0172490Y0231437D01*
X0172437Y0231485D01*
X0172387Y0231535D01*
X0172339Y0231587D01*
X0172294Y0231642D01*
X0172253Y0231700D01*
X0172214Y0231760D01*
X0172179Y0231821D01*
X0172147Y0231885D01*
X0172119Y0231950D01*
X0172094Y0232016D01*
X0173339Y0231127D02*
X0173410Y0231129D01*
X0173481Y0231135D01*
X0173551Y0231144D01*
X0173621Y0231158D01*
X0173690Y0231175D01*
X0173757Y0231195D01*
X0173824Y0231220D01*
X0173889Y0231248D01*
X0173953Y0231279D01*
X0174015Y0231314D01*
X0174075Y0231352D01*
X0174133Y0231393D01*
X0174188Y0231437D01*
X0174241Y0231485D01*
X0174291Y0231535D01*
X0174339Y0231587D01*
X0174384Y0231642D01*
X0174425Y0231700D01*
X0174464Y0231760D01*
X0174499Y0231821D01*
X0174531Y0231885D01*
X0174559Y0231950D01*
X0174584Y0232016D01*
X0172095Y0232017D02*
X0172035Y0232144D01*
X0171979Y0232273D01*
X0171926Y0232403D01*
X0171876Y0232535D01*
X0171830Y0232668D01*
X0171788Y0232802D01*
X0171749Y0232937D01*
X0171713Y0233074D01*
X0171682Y0233211D01*
X0171654Y0233349D01*
X0171629Y0233487D01*
X0171609Y0233626D01*
X0171592Y0233766D01*
X0171579Y0233906D01*
X0171570Y0234047D01*
X0171564Y0234187D01*
X0171562Y0234328D01*
X0175117Y0234328D02*
X0175115Y0234469D01*
X0175109Y0234609D01*
X0175100Y0234750D01*
X0175087Y0234890D01*
X0175070Y0235030D01*
X0175050Y0235169D01*
X0175025Y0235307D01*
X0174997Y0235445D01*
X0174966Y0235582D01*
X0174930Y0235719D01*
X0174891Y0235854D01*
X0174849Y0235988D01*
X0174803Y0236121D01*
X0174753Y0236253D01*
X0174700Y0236383D01*
X0174644Y0236512D01*
X0174584Y0236639D01*
X0174559Y0236705D01*
X0174531Y0236770D01*
X0174499Y0236834D01*
X0174464Y0236895D01*
X0174425Y0236955D01*
X0174384Y0237013D01*
X0174339Y0237068D01*
X0174291Y0237120D01*
X0174241Y0237170D01*
X0174188Y0237218D01*
X0174133Y0237262D01*
X0174075Y0237303D01*
X0174015Y0237341D01*
X0173953Y0237376D01*
X0173889Y0237407D01*
X0173824Y0237435D01*
X0173757Y0237460D01*
X0173690Y0237480D01*
X0173621Y0237497D01*
X0173551Y0237511D01*
X0173481Y0237520D01*
X0173410Y0237526D01*
X0173339Y0237528D01*
X0173268Y0237526D01*
X0173197Y0237520D01*
X0173127Y0237511D01*
X0173057Y0237497D01*
X0172988Y0237480D01*
X0172921Y0237460D01*
X0172854Y0237435D01*
X0172789Y0237407D01*
X0172725Y0237376D01*
X0172663Y0237341D01*
X0172603Y0237303D01*
X0172546Y0237262D01*
X0172490Y0237218D01*
X0172437Y0237170D01*
X0172387Y0237120D01*
X0172339Y0237068D01*
X0172294Y0237013D01*
X0172253Y0236955D01*
X0172214Y0236895D01*
X0172179Y0236834D01*
X0172147Y0236770D01*
X0172119Y0236705D01*
X0172094Y0236639D01*
X0179493Y0237528D02*
X0179493Y0231128D01*
X0181271Y0231128D02*
X0177715Y0231128D01*
X0183610Y0230416D02*
X0186454Y0230416D01*
X0190570Y0231128D02*
X0188793Y0237528D01*
X0192348Y0237528D01*
X0192348Y0236816D01*
X0196724Y0237528D02*
X0196724Y0231128D01*
X0194947Y0231128D02*
X0198502Y0231128D01*
X0204123Y0232017D02*
X0204183Y0232144D01*
X0204239Y0232273D01*
X0204292Y0232403D01*
X0204342Y0232535D01*
X0204388Y0232668D01*
X0204430Y0232802D01*
X0204469Y0232937D01*
X0204505Y0233074D01*
X0204536Y0233211D01*
X0204564Y0233349D01*
X0204589Y0233487D01*
X0204609Y0233626D01*
X0204626Y0233766D01*
X0204639Y0233906D01*
X0204648Y0234047D01*
X0204654Y0234187D01*
X0204656Y0234328D01*
X0201101Y0234328D02*
X0201103Y0234469D01*
X0201109Y0234609D01*
X0201118Y0234750D01*
X0201131Y0234890D01*
X0201148Y0235030D01*
X0201168Y0235169D01*
X0201193Y0235307D01*
X0201221Y0235445D01*
X0201252Y0235582D01*
X0201288Y0235719D01*
X0201327Y0235854D01*
X0201369Y0235988D01*
X0201415Y0236121D01*
X0201465Y0236253D01*
X0201518Y0236383D01*
X0201574Y0236512D01*
X0201634Y0236639D01*
X0201456Y0236105D02*
X0204301Y0232550D01*
X0202879Y0231127D02*
X0202808Y0231129D01*
X0202737Y0231135D01*
X0202667Y0231144D01*
X0202597Y0231158D01*
X0202528Y0231175D01*
X0202461Y0231195D01*
X0202394Y0231220D01*
X0202329Y0231248D01*
X0202265Y0231279D01*
X0202203Y0231314D01*
X0202143Y0231352D01*
X0202086Y0231393D01*
X0202030Y0231437D01*
X0201977Y0231485D01*
X0201927Y0231535D01*
X0201879Y0231587D01*
X0201834Y0231642D01*
X0201793Y0231700D01*
X0201754Y0231760D01*
X0201719Y0231821D01*
X0201687Y0231885D01*
X0201659Y0231950D01*
X0201634Y0232016D01*
X0202879Y0231127D02*
X0202950Y0231129D01*
X0203021Y0231135D01*
X0203091Y0231144D01*
X0203161Y0231158D01*
X0203230Y0231175D01*
X0203297Y0231195D01*
X0203364Y0231220D01*
X0203429Y0231248D01*
X0203493Y0231279D01*
X0203555Y0231314D01*
X0203615Y0231352D01*
X0203673Y0231393D01*
X0203728Y0231437D01*
X0203781Y0231485D01*
X0203831Y0231535D01*
X0203879Y0231587D01*
X0203924Y0231642D01*
X0203965Y0231700D01*
X0204004Y0231760D01*
X0204039Y0231821D01*
X0204071Y0231885D01*
X0204099Y0231950D01*
X0204124Y0232016D01*
X0201634Y0232017D02*
X0201574Y0232144D01*
X0201518Y0232273D01*
X0201465Y0232403D01*
X0201415Y0232535D01*
X0201369Y0232668D01*
X0201327Y0232802D01*
X0201288Y0232937D01*
X0201252Y0233074D01*
X0201221Y0233211D01*
X0201193Y0233349D01*
X0201168Y0233487D01*
X0201148Y0233626D01*
X0201131Y0233766D01*
X0201118Y0233906D01*
X0201109Y0234047D01*
X0201103Y0234187D01*
X0201101Y0234328D01*
X0204656Y0234328D02*
X0204654Y0234469D01*
X0204648Y0234609D01*
X0204639Y0234750D01*
X0204626Y0234890D01*
X0204609Y0235030D01*
X0204589Y0235169D01*
X0204564Y0235307D01*
X0204536Y0235445D01*
X0204505Y0235582D01*
X0204469Y0235719D01*
X0204430Y0235854D01*
X0204388Y0235988D01*
X0204342Y0236121D01*
X0204292Y0236253D01*
X0204239Y0236383D01*
X0204183Y0236512D01*
X0204123Y0236639D01*
X0202879Y0237528D02*
X0202808Y0237526D01*
X0202737Y0237520D01*
X0202667Y0237511D01*
X0202597Y0237497D01*
X0202528Y0237480D01*
X0202461Y0237460D01*
X0202394Y0237435D01*
X0202329Y0237407D01*
X0202265Y0237376D01*
X0202203Y0237341D01*
X0202143Y0237303D01*
X0202086Y0237262D01*
X0202030Y0237218D01*
X0201977Y0237170D01*
X0201927Y0237120D01*
X0201879Y0237068D01*
X0201834Y0237013D01*
X0201793Y0236955D01*
X0201754Y0236895D01*
X0201719Y0236834D01*
X0201687Y0236770D01*
X0201659Y0236705D01*
X0201634Y0236639D01*
X0202879Y0237528D02*
X0202950Y0237526D01*
X0203021Y0237520D01*
X0203091Y0237511D01*
X0203161Y0237497D01*
X0203230Y0237480D01*
X0203297Y0237460D01*
X0203364Y0237435D01*
X0203429Y0237407D01*
X0203493Y0237376D01*
X0203555Y0237341D01*
X0203615Y0237303D01*
X0203673Y0237262D01*
X0203728Y0237218D01*
X0203781Y0237170D01*
X0203831Y0237120D01*
X0203879Y0237068D01*
X0203924Y0237013D01*
X0203965Y0236955D01*
X0204004Y0236895D01*
X0204039Y0236834D01*
X0204071Y0236770D01*
X0204099Y0236705D01*
X0204124Y0236639D01*
X0207788Y0234683D02*
X0210810Y0231128D01*
X0207255Y0231128D01*
X0210811Y0236105D02*
X0210782Y0236190D01*
X0210749Y0236272D01*
X0210712Y0236354D01*
X0210672Y0236434D01*
X0210629Y0236511D01*
X0210582Y0236587D01*
X0210532Y0236661D01*
X0210479Y0236733D01*
X0210423Y0236802D01*
X0210364Y0236869D01*
X0210302Y0236933D01*
X0210237Y0236994D01*
X0210170Y0237053D01*
X0210100Y0237108D01*
X0210028Y0237161D01*
X0209954Y0237210D01*
X0209877Y0237256D01*
X0209799Y0237298D01*
X0209719Y0237338D01*
X0209637Y0237373D01*
X0209554Y0237406D01*
X0209470Y0237434D01*
X0209384Y0237459D01*
X0209297Y0237480D01*
X0209210Y0237497D01*
X0209122Y0237511D01*
X0209033Y0237520D01*
X0208944Y0237526D01*
X0208855Y0237528D01*
X0208776Y0237526D01*
X0208698Y0237520D01*
X0208620Y0237511D01*
X0208543Y0237497D01*
X0208466Y0237480D01*
X0208391Y0237459D01*
X0208316Y0237434D01*
X0208243Y0237406D01*
X0208171Y0237374D01*
X0208101Y0237339D01*
X0208032Y0237300D01*
X0207966Y0237258D01*
X0207902Y0237213D01*
X0207840Y0237165D01*
X0207781Y0237114D01*
X0207724Y0237059D01*
X0207669Y0237002D01*
X0207618Y0236943D01*
X0207570Y0236881D01*
X0207525Y0236817D01*
X0207483Y0236751D01*
X0207444Y0236682D01*
X0207409Y0236612D01*
X0207377Y0236540D01*
X0207349Y0236467D01*
X0207324Y0236392D01*
X0207303Y0236317D01*
X0207286Y0236240D01*
X0207272Y0236163D01*
X0207263Y0236085D01*
X0207257Y0236007D01*
X0207255Y0235928D01*
X0207254Y0235928D02*
X0207256Y0235846D01*
X0207262Y0235764D01*
X0207272Y0235683D01*
X0207285Y0235602D01*
X0207303Y0235522D01*
X0207324Y0235443D01*
X0207349Y0235365D01*
X0207377Y0235289D01*
X0207410Y0235213D01*
X0207445Y0235140D01*
X0207485Y0235068D01*
X0207527Y0234998D01*
X0207573Y0234930D01*
X0207622Y0234865D01*
X0207674Y0234802D01*
X0207730Y0234741D01*
X0207787Y0234683D01*
X0216870Y0235394D02*
X0218648Y0235394D01*
X0218648Y0235395D02*
X0218712Y0235393D01*
X0218777Y0235387D01*
X0218840Y0235378D01*
X0218903Y0235364D01*
X0218965Y0235347D01*
X0219026Y0235326D01*
X0219086Y0235301D01*
X0219144Y0235273D01*
X0219200Y0235241D01*
X0219254Y0235206D01*
X0219306Y0235168D01*
X0219356Y0235127D01*
X0219402Y0235082D01*
X0219447Y0235036D01*
X0219488Y0234986D01*
X0219526Y0234934D01*
X0219561Y0234880D01*
X0219593Y0234824D01*
X0219621Y0234766D01*
X0219646Y0234706D01*
X0219667Y0234645D01*
X0219684Y0234583D01*
X0219698Y0234520D01*
X0219707Y0234457D01*
X0219713Y0234392D01*
X0219715Y0234328D01*
X0219715Y0232194D01*
X0219713Y0232130D01*
X0219707Y0232065D01*
X0219698Y0232002D01*
X0219684Y0231939D01*
X0219667Y0231877D01*
X0219646Y0231816D01*
X0219621Y0231756D01*
X0219593Y0231698D01*
X0219561Y0231642D01*
X0219526Y0231588D01*
X0219488Y0231536D01*
X0219447Y0231486D01*
X0219402Y0231440D01*
X0219356Y0231395D01*
X0219306Y0231354D01*
X0219254Y0231316D01*
X0219200Y0231281D01*
X0219144Y0231249D01*
X0219086Y0231221D01*
X0219026Y0231196D01*
X0218965Y0231175D01*
X0218903Y0231158D01*
X0218840Y0231144D01*
X0218777Y0231135D01*
X0218712Y0231129D01*
X0218648Y0231127D01*
X0218648Y0231128D02*
X0216870Y0231128D01*
X0216870Y0237528D01*
X0222175Y0233972D02*
X0222175Y0233261D01*
X0225019Y0233261D01*
X0225019Y0233972D02*
X0225019Y0232194D01*
X0225020Y0232194D02*
X0225018Y0232130D01*
X0225012Y0232065D01*
X0225003Y0232002D01*
X0224989Y0231939D01*
X0224972Y0231877D01*
X0224951Y0231816D01*
X0224926Y0231756D01*
X0224898Y0231698D01*
X0224866Y0231642D01*
X0224831Y0231588D01*
X0224793Y0231536D01*
X0224752Y0231486D01*
X0224707Y0231440D01*
X0224661Y0231395D01*
X0224611Y0231354D01*
X0224559Y0231316D01*
X0224505Y0231281D01*
X0224449Y0231249D01*
X0224391Y0231221D01*
X0224331Y0231196D01*
X0224270Y0231175D01*
X0224208Y0231158D01*
X0224145Y0231144D01*
X0224082Y0231135D01*
X0224017Y0231129D01*
X0223953Y0231127D01*
X0223953Y0231128D02*
X0222175Y0231128D01*
X0222175Y0233972D02*
X0222177Y0234046D01*
X0222183Y0234121D01*
X0222193Y0234194D01*
X0222206Y0234268D01*
X0222223Y0234340D01*
X0222245Y0234411D01*
X0222269Y0234482D01*
X0222298Y0234550D01*
X0222330Y0234618D01*
X0222366Y0234683D01*
X0222404Y0234746D01*
X0222447Y0234808D01*
X0222492Y0234867D01*
X0222540Y0234924D01*
X0222591Y0234978D01*
X0222645Y0235029D01*
X0222702Y0235077D01*
X0222761Y0235122D01*
X0222823Y0235165D01*
X0222886Y0235203D01*
X0222951Y0235239D01*
X0223019Y0235271D01*
X0223087Y0235300D01*
X0223158Y0235324D01*
X0223229Y0235346D01*
X0223301Y0235363D01*
X0223375Y0235376D01*
X0223448Y0235386D01*
X0223523Y0235392D01*
X0223597Y0235394D01*
X0223671Y0235392D01*
X0223746Y0235386D01*
X0223819Y0235376D01*
X0223893Y0235363D01*
X0223965Y0235346D01*
X0224036Y0235324D01*
X0224107Y0235300D01*
X0224175Y0235271D01*
X0224243Y0235239D01*
X0224308Y0235203D01*
X0224371Y0235165D01*
X0224433Y0235122D01*
X0224492Y0235077D01*
X0224549Y0235029D01*
X0224603Y0234978D01*
X0224654Y0234924D01*
X0224702Y0234867D01*
X0224747Y0234808D01*
X0224790Y0234746D01*
X0224828Y0234683D01*
X0224864Y0234618D01*
X0224896Y0234550D01*
X0224925Y0234482D01*
X0224949Y0234411D01*
X0224971Y0234340D01*
X0224988Y0234268D01*
X0225001Y0234194D01*
X0225011Y0234121D01*
X0225017Y0234046D01*
X0225019Y0233972D01*
X0226955Y0234683D02*
X0226955Y0235394D01*
X0229089Y0235394D01*
X0229089Y0231128D01*
X0231816Y0231128D02*
X0233594Y0231128D01*
X0233594Y0231127D02*
X0233658Y0231129D01*
X0233723Y0231135D01*
X0233786Y0231144D01*
X0233849Y0231158D01*
X0233911Y0231175D01*
X0233972Y0231196D01*
X0234032Y0231221D01*
X0234090Y0231249D01*
X0234146Y0231281D01*
X0234200Y0231316D01*
X0234252Y0231354D01*
X0234302Y0231395D01*
X0234348Y0231440D01*
X0234393Y0231486D01*
X0234434Y0231536D01*
X0234472Y0231588D01*
X0234507Y0231642D01*
X0234539Y0231698D01*
X0234567Y0231756D01*
X0234592Y0231816D01*
X0234613Y0231877D01*
X0234630Y0231939D01*
X0234644Y0232002D01*
X0234653Y0232065D01*
X0234659Y0232130D01*
X0234661Y0232194D01*
X0234661Y0233972D01*
X0234661Y0233261D02*
X0231816Y0233261D01*
X0231816Y0233972D01*
X0231818Y0234046D01*
X0231824Y0234121D01*
X0231834Y0234194D01*
X0231847Y0234268D01*
X0231864Y0234340D01*
X0231886Y0234411D01*
X0231910Y0234482D01*
X0231939Y0234550D01*
X0231971Y0234618D01*
X0232007Y0234683D01*
X0232045Y0234746D01*
X0232088Y0234808D01*
X0232133Y0234867D01*
X0232181Y0234924D01*
X0232232Y0234978D01*
X0232286Y0235029D01*
X0232343Y0235077D01*
X0232402Y0235122D01*
X0232464Y0235165D01*
X0232527Y0235203D01*
X0232592Y0235239D01*
X0232660Y0235271D01*
X0232728Y0235300D01*
X0232799Y0235324D01*
X0232870Y0235346D01*
X0232942Y0235363D01*
X0233016Y0235376D01*
X0233089Y0235386D01*
X0233164Y0235392D01*
X0233238Y0235394D01*
X0233312Y0235392D01*
X0233387Y0235386D01*
X0233460Y0235376D01*
X0233534Y0235363D01*
X0233606Y0235346D01*
X0233677Y0235324D01*
X0233748Y0235300D01*
X0233816Y0235271D01*
X0233884Y0235239D01*
X0233949Y0235203D01*
X0234012Y0235165D01*
X0234074Y0235122D01*
X0234133Y0235077D01*
X0234190Y0235029D01*
X0234244Y0234978D01*
X0234295Y0234924D01*
X0234343Y0234867D01*
X0234388Y0234808D01*
X0234431Y0234746D01*
X0234469Y0234683D01*
X0234505Y0234618D01*
X0234537Y0234550D01*
X0234566Y0234482D01*
X0234590Y0234411D01*
X0234612Y0234340D01*
X0234629Y0234268D01*
X0234642Y0234194D01*
X0234652Y0234121D01*
X0234658Y0234046D01*
X0234660Y0233972D01*
X0237384Y0235394D02*
X0239161Y0235394D01*
X0239161Y0235395D02*
X0239225Y0235393D01*
X0239290Y0235387D01*
X0239353Y0235378D01*
X0239416Y0235364D01*
X0239478Y0235347D01*
X0239539Y0235326D01*
X0239599Y0235301D01*
X0239657Y0235273D01*
X0239713Y0235241D01*
X0239767Y0235206D01*
X0239819Y0235168D01*
X0239869Y0235127D01*
X0239915Y0235082D01*
X0239960Y0235036D01*
X0240001Y0234986D01*
X0240039Y0234934D01*
X0240074Y0234880D01*
X0240106Y0234824D01*
X0240134Y0234766D01*
X0240159Y0234706D01*
X0240180Y0234645D01*
X0240197Y0234583D01*
X0240211Y0234520D01*
X0240220Y0234457D01*
X0240226Y0234392D01*
X0240228Y0234328D01*
X0240228Y0232194D01*
X0240226Y0232130D01*
X0240220Y0232065D01*
X0240211Y0232002D01*
X0240197Y0231939D01*
X0240180Y0231877D01*
X0240159Y0231816D01*
X0240134Y0231756D01*
X0240106Y0231698D01*
X0240074Y0231642D01*
X0240039Y0231588D01*
X0240001Y0231536D01*
X0239960Y0231486D01*
X0239915Y0231440D01*
X0239869Y0231395D01*
X0239819Y0231354D01*
X0239767Y0231316D01*
X0239713Y0231281D01*
X0239657Y0231249D01*
X0239599Y0231221D01*
X0239539Y0231196D01*
X0239478Y0231175D01*
X0239416Y0231158D01*
X0239353Y0231144D01*
X0239290Y0231135D01*
X0239225Y0231129D01*
X0239161Y0231127D01*
X0239161Y0231128D02*
X0237384Y0231128D01*
X0237384Y0237528D01*
X0242135Y0235394D02*
X0242135Y0234683D01*
X0242135Y0235394D02*
X0244268Y0235394D01*
X0244268Y0231128D01*
X0247051Y0232905D02*
X0247051Y0235750D01*
X0247053Y0235833D01*
X0247059Y0235916D01*
X0247069Y0235999D01*
X0247082Y0236082D01*
X0247100Y0236163D01*
X0247121Y0236244D01*
X0247146Y0236323D01*
X0247175Y0236401D01*
X0247207Y0236478D01*
X0247243Y0236553D01*
X0247282Y0236627D01*
X0247325Y0236698D01*
X0247371Y0236768D01*
X0247421Y0236835D01*
X0247473Y0236900D01*
X0247528Y0236962D01*
X0247587Y0237022D01*
X0247648Y0237079D01*
X0247711Y0237133D01*
X0247777Y0237184D01*
X0247846Y0237231D01*
X0247916Y0237276D01*
X0247989Y0237317D01*
X0248063Y0237354D01*
X0248139Y0237389D01*
X0248217Y0237419D01*
X0248295Y0237446D01*
X0248376Y0237469D01*
X0248457Y0237489D01*
X0248539Y0237504D01*
X0248621Y0237516D01*
X0248704Y0237524D01*
X0248787Y0237528D01*
X0248871Y0237528D01*
X0248954Y0237524D01*
X0249037Y0237516D01*
X0249119Y0237504D01*
X0249201Y0237489D01*
X0249282Y0237469D01*
X0249363Y0237446D01*
X0249441Y0237419D01*
X0249519Y0237389D01*
X0249595Y0237354D01*
X0249669Y0237317D01*
X0249742Y0237276D01*
X0249812Y0237231D01*
X0249881Y0237184D01*
X0249947Y0237133D01*
X0250010Y0237079D01*
X0250071Y0237022D01*
X0250130Y0236962D01*
X0250185Y0236900D01*
X0250237Y0236835D01*
X0250287Y0236768D01*
X0250333Y0236698D01*
X0250376Y0236627D01*
X0250415Y0236553D01*
X0250451Y0236478D01*
X0250483Y0236401D01*
X0250512Y0236323D01*
X0250537Y0236244D01*
X0250558Y0236163D01*
X0250576Y0236082D01*
X0250589Y0235999D01*
X0250599Y0235916D01*
X0250605Y0235833D01*
X0250607Y0235750D01*
X0250606Y0235750D02*
X0250606Y0232905D01*
X0250607Y0232905D02*
X0250605Y0232822D01*
X0250599Y0232739D01*
X0250589Y0232656D01*
X0250576Y0232573D01*
X0250558Y0232492D01*
X0250537Y0232411D01*
X0250512Y0232332D01*
X0250483Y0232254D01*
X0250451Y0232177D01*
X0250415Y0232102D01*
X0250376Y0232028D01*
X0250333Y0231957D01*
X0250287Y0231887D01*
X0250237Y0231820D01*
X0250185Y0231755D01*
X0250130Y0231693D01*
X0250071Y0231633D01*
X0250010Y0231576D01*
X0249947Y0231522D01*
X0249881Y0231471D01*
X0249812Y0231424D01*
X0249742Y0231379D01*
X0249669Y0231338D01*
X0249595Y0231301D01*
X0249519Y0231266D01*
X0249441Y0231236D01*
X0249363Y0231209D01*
X0249282Y0231186D01*
X0249201Y0231166D01*
X0249119Y0231151D01*
X0249037Y0231139D01*
X0248954Y0231131D01*
X0248871Y0231127D01*
X0248787Y0231127D01*
X0248704Y0231131D01*
X0248621Y0231139D01*
X0248539Y0231151D01*
X0248457Y0231166D01*
X0248376Y0231186D01*
X0248295Y0231209D01*
X0248217Y0231236D01*
X0248139Y0231266D01*
X0248063Y0231301D01*
X0247989Y0231338D01*
X0247916Y0231379D01*
X0247846Y0231424D01*
X0247777Y0231471D01*
X0247711Y0231522D01*
X0247648Y0231576D01*
X0247587Y0231633D01*
X0247528Y0231693D01*
X0247473Y0231755D01*
X0247421Y0231820D01*
X0247371Y0231887D01*
X0247325Y0231957D01*
X0247282Y0232028D01*
X0247243Y0232102D01*
X0247207Y0232177D01*
X0247175Y0232254D01*
X0247146Y0232332D01*
X0247121Y0232411D01*
X0247100Y0232492D01*
X0247082Y0232573D01*
X0247069Y0232656D01*
X0247059Y0232739D01*
X0247053Y0232822D01*
X0247051Y0232905D01*
X0240370Y0261049D02*
X0238592Y0261049D01*
X0238510Y0261051D01*
X0238428Y0261057D01*
X0238346Y0261066D01*
X0238265Y0261079D01*
X0238185Y0261096D01*
X0238105Y0261117D01*
X0238027Y0261141D01*
X0237950Y0261169D01*
X0237874Y0261200D01*
X0237799Y0261235D01*
X0237727Y0261274D01*
X0237656Y0261315D01*
X0237587Y0261360D01*
X0237521Y0261408D01*
X0237456Y0261459D01*
X0237394Y0261513D01*
X0237335Y0261570D01*
X0237278Y0261629D01*
X0237224Y0261691D01*
X0237173Y0261756D01*
X0237125Y0261822D01*
X0237080Y0261891D01*
X0237039Y0261962D01*
X0237000Y0262034D01*
X0236965Y0262109D01*
X0236934Y0262185D01*
X0236906Y0262262D01*
X0236882Y0262340D01*
X0236861Y0262420D01*
X0236844Y0262500D01*
X0236831Y0262581D01*
X0236822Y0262663D01*
X0236816Y0262745D01*
X0236814Y0262827D01*
X0236815Y0262827D02*
X0236815Y0265671D01*
X0236814Y0265671D02*
X0236816Y0265753D01*
X0236822Y0265835D01*
X0236831Y0265917D01*
X0236844Y0265998D01*
X0236861Y0266078D01*
X0236882Y0266158D01*
X0236906Y0266236D01*
X0236934Y0266313D01*
X0236965Y0266389D01*
X0237000Y0266464D01*
X0237039Y0266536D01*
X0237080Y0266607D01*
X0237125Y0266676D01*
X0237173Y0266742D01*
X0237224Y0266807D01*
X0237278Y0266869D01*
X0237335Y0266928D01*
X0237394Y0266985D01*
X0237456Y0267039D01*
X0237521Y0267090D01*
X0237587Y0267138D01*
X0237656Y0267183D01*
X0237727Y0267224D01*
X0237799Y0267263D01*
X0237874Y0267298D01*
X0237950Y0267329D01*
X0238027Y0267357D01*
X0238105Y0267381D01*
X0238185Y0267402D01*
X0238265Y0267419D01*
X0238346Y0267432D01*
X0238428Y0267441D01*
X0238510Y0267447D01*
X0238592Y0267449D01*
X0240370Y0267449D01*
X0240370Y0261049D01*
X0234026Y0262471D02*
X0234026Y0266027D01*
X0234024Y0266101D01*
X0234018Y0266176D01*
X0234008Y0266249D01*
X0233995Y0266323D01*
X0233978Y0266395D01*
X0233956Y0266466D01*
X0233932Y0266537D01*
X0233903Y0266605D01*
X0233871Y0266673D01*
X0233835Y0266738D01*
X0233797Y0266801D01*
X0233754Y0266863D01*
X0233709Y0266922D01*
X0233661Y0266979D01*
X0233610Y0267033D01*
X0233556Y0267084D01*
X0233499Y0267132D01*
X0233440Y0267177D01*
X0233378Y0267220D01*
X0233315Y0267258D01*
X0233250Y0267294D01*
X0233182Y0267326D01*
X0233114Y0267355D01*
X0233043Y0267379D01*
X0232972Y0267401D01*
X0232900Y0267418D01*
X0232826Y0267431D01*
X0232753Y0267441D01*
X0232678Y0267447D01*
X0232604Y0267449D01*
X0231182Y0267449D01*
X0234026Y0262471D02*
X0234024Y0262397D01*
X0234018Y0262322D01*
X0234008Y0262249D01*
X0233995Y0262175D01*
X0233978Y0262103D01*
X0233956Y0262032D01*
X0233932Y0261961D01*
X0233903Y0261893D01*
X0233871Y0261825D01*
X0233835Y0261760D01*
X0233797Y0261697D01*
X0233754Y0261635D01*
X0233709Y0261576D01*
X0233661Y0261519D01*
X0233610Y0261465D01*
X0233556Y0261414D01*
X0233499Y0261366D01*
X0233440Y0261321D01*
X0233378Y0261278D01*
X0233315Y0261240D01*
X0233250Y0261204D01*
X0233182Y0261172D01*
X0233114Y0261143D01*
X0233043Y0261119D01*
X0232972Y0261097D01*
X0232900Y0261080D01*
X0232826Y0261067D01*
X0232753Y0261057D01*
X0232678Y0261051D01*
X0232604Y0261049D01*
X0231182Y0261049D01*
X0225341Y0261049D02*
X0225341Y0267449D01*
X0223207Y0263893D01*
X0221074Y0267449D01*
X0221074Y0261049D01*
X0218270Y0262471D02*
X0218270Y0263893D01*
X0218268Y0263967D01*
X0218262Y0264042D01*
X0218252Y0264115D01*
X0218239Y0264189D01*
X0218222Y0264261D01*
X0218200Y0264332D01*
X0218176Y0264403D01*
X0218147Y0264471D01*
X0218115Y0264539D01*
X0218079Y0264604D01*
X0218041Y0264667D01*
X0217998Y0264729D01*
X0217953Y0264788D01*
X0217905Y0264845D01*
X0217854Y0264899D01*
X0217800Y0264950D01*
X0217743Y0264998D01*
X0217684Y0265043D01*
X0217622Y0265086D01*
X0217559Y0265124D01*
X0217494Y0265160D01*
X0217426Y0265192D01*
X0217358Y0265221D01*
X0217287Y0265245D01*
X0217216Y0265267D01*
X0217144Y0265284D01*
X0217070Y0265297D01*
X0216997Y0265307D01*
X0216922Y0265313D01*
X0216848Y0265315D01*
X0216774Y0265313D01*
X0216699Y0265307D01*
X0216626Y0265297D01*
X0216552Y0265284D01*
X0216480Y0265267D01*
X0216409Y0265245D01*
X0216338Y0265221D01*
X0216270Y0265192D01*
X0216202Y0265160D01*
X0216137Y0265124D01*
X0216074Y0265086D01*
X0216012Y0265043D01*
X0215953Y0264998D01*
X0215896Y0264950D01*
X0215842Y0264899D01*
X0215791Y0264845D01*
X0215743Y0264788D01*
X0215698Y0264729D01*
X0215655Y0264667D01*
X0215617Y0264604D01*
X0215581Y0264539D01*
X0215549Y0264471D01*
X0215520Y0264403D01*
X0215496Y0264332D01*
X0215474Y0264261D01*
X0215457Y0264189D01*
X0215444Y0264115D01*
X0215434Y0264042D01*
X0215428Y0263967D01*
X0215426Y0263893D01*
X0215426Y0262471D01*
X0215428Y0262397D01*
X0215434Y0262322D01*
X0215444Y0262249D01*
X0215457Y0262175D01*
X0215474Y0262103D01*
X0215496Y0262032D01*
X0215520Y0261961D01*
X0215549Y0261893D01*
X0215581Y0261825D01*
X0215617Y0261760D01*
X0215655Y0261697D01*
X0215698Y0261635D01*
X0215743Y0261576D01*
X0215791Y0261519D01*
X0215842Y0261465D01*
X0215896Y0261414D01*
X0215953Y0261366D01*
X0216012Y0261321D01*
X0216074Y0261278D01*
X0216137Y0261240D01*
X0216202Y0261204D01*
X0216270Y0261172D01*
X0216338Y0261143D01*
X0216409Y0261119D01*
X0216480Y0261097D01*
X0216552Y0261080D01*
X0216626Y0261067D01*
X0216699Y0261057D01*
X0216774Y0261051D01*
X0216848Y0261049D01*
X0216922Y0261051D01*
X0216997Y0261057D01*
X0217070Y0261067D01*
X0217144Y0261080D01*
X0217216Y0261097D01*
X0217287Y0261119D01*
X0217358Y0261143D01*
X0217426Y0261172D01*
X0217494Y0261204D01*
X0217559Y0261240D01*
X0217622Y0261278D01*
X0217684Y0261321D01*
X0217743Y0261366D01*
X0217800Y0261414D01*
X0217854Y0261465D01*
X0217905Y0261519D01*
X0217953Y0261576D01*
X0217998Y0261635D01*
X0218041Y0261697D01*
X0218079Y0261760D01*
X0218115Y0261825D01*
X0218147Y0261893D01*
X0218176Y0261961D01*
X0218200Y0262032D01*
X0218222Y0262103D01*
X0218239Y0262175D01*
X0218252Y0262249D01*
X0218262Y0262322D01*
X0218268Y0262397D01*
X0218270Y0262471D01*
X0212736Y0262115D02*
X0212736Y0267449D01*
X0213448Y0265315D02*
X0211314Y0265315D01*
X0209039Y0263893D02*
X0209039Y0262471D01*
X0209037Y0262397D01*
X0209031Y0262322D01*
X0209021Y0262249D01*
X0209008Y0262175D01*
X0208991Y0262103D01*
X0208969Y0262032D01*
X0208945Y0261961D01*
X0208916Y0261893D01*
X0208884Y0261825D01*
X0208848Y0261760D01*
X0208810Y0261697D01*
X0208767Y0261635D01*
X0208722Y0261576D01*
X0208674Y0261519D01*
X0208623Y0261465D01*
X0208569Y0261414D01*
X0208512Y0261366D01*
X0208453Y0261321D01*
X0208391Y0261278D01*
X0208328Y0261240D01*
X0208263Y0261204D01*
X0208195Y0261172D01*
X0208127Y0261143D01*
X0208056Y0261119D01*
X0207985Y0261097D01*
X0207913Y0261080D01*
X0207839Y0261067D01*
X0207766Y0261057D01*
X0207691Y0261051D01*
X0207617Y0261049D01*
X0207543Y0261051D01*
X0207468Y0261057D01*
X0207395Y0261067D01*
X0207321Y0261080D01*
X0207249Y0261097D01*
X0207178Y0261119D01*
X0207107Y0261143D01*
X0207039Y0261172D01*
X0206971Y0261204D01*
X0206906Y0261240D01*
X0206843Y0261278D01*
X0206781Y0261321D01*
X0206722Y0261366D01*
X0206665Y0261414D01*
X0206611Y0261465D01*
X0206560Y0261519D01*
X0206512Y0261576D01*
X0206467Y0261635D01*
X0206424Y0261697D01*
X0206386Y0261760D01*
X0206350Y0261825D01*
X0206318Y0261893D01*
X0206289Y0261961D01*
X0206265Y0262032D01*
X0206243Y0262103D01*
X0206226Y0262175D01*
X0206213Y0262249D01*
X0206203Y0262322D01*
X0206197Y0262397D01*
X0206195Y0262471D01*
X0206195Y0263893D01*
X0206197Y0263967D01*
X0206203Y0264042D01*
X0206213Y0264115D01*
X0206226Y0264189D01*
X0206243Y0264261D01*
X0206265Y0264332D01*
X0206289Y0264403D01*
X0206318Y0264471D01*
X0206350Y0264539D01*
X0206386Y0264604D01*
X0206424Y0264667D01*
X0206467Y0264729D01*
X0206512Y0264788D01*
X0206560Y0264845D01*
X0206611Y0264899D01*
X0206665Y0264950D01*
X0206722Y0264998D01*
X0206781Y0265043D01*
X0206843Y0265086D01*
X0206906Y0265124D01*
X0206971Y0265160D01*
X0207039Y0265192D01*
X0207107Y0265221D01*
X0207178Y0265245D01*
X0207249Y0265267D01*
X0207321Y0265284D01*
X0207395Y0265297D01*
X0207468Y0265307D01*
X0207543Y0265313D01*
X0207617Y0265315D01*
X0207691Y0265313D01*
X0207766Y0265307D01*
X0207839Y0265297D01*
X0207913Y0265284D01*
X0207985Y0265267D01*
X0208056Y0265245D01*
X0208127Y0265221D01*
X0208195Y0265192D01*
X0208263Y0265160D01*
X0208328Y0265124D01*
X0208391Y0265086D01*
X0208453Y0265043D01*
X0208512Y0264998D01*
X0208569Y0264950D01*
X0208623Y0264899D01*
X0208674Y0264845D01*
X0208722Y0264788D01*
X0208767Y0264729D01*
X0208810Y0264667D01*
X0208848Y0264604D01*
X0208884Y0264539D01*
X0208916Y0264471D01*
X0208945Y0264403D01*
X0208969Y0264332D01*
X0208991Y0264261D01*
X0209008Y0264189D01*
X0209021Y0264115D01*
X0209031Y0264042D01*
X0209037Y0263967D01*
X0209039Y0263893D01*
X0211670Y0261048D02*
X0211734Y0261050D01*
X0211799Y0261056D01*
X0211862Y0261065D01*
X0211925Y0261079D01*
X0211987Y0261096D01*
X0212048Y0261117D01*
X0212108Y0261142D01*
X0212166Y0261170D01*
X0212222Y0261202D01*
X0212276Y0261237D01*
X0212328Y0261275D01*
X0212378Y0261316D01*
X0212424Y0261361D01*
X0212469Y0261407D01*
X0212510Y0261457D01*
X0212548Y0261509D01*
X0212583Y0261563D01*
X0212615Y0261619D01*
X0212643Y0261677D01*
X0212668Y0261737D01*
X0212689Y0261798D01*
X0212706Y0261860D01*
X0212720Y0261923D01*
X0212729Y0261986D01*
X0212735Y0262051D01*
X0212737Y0262115D01*
X0211670Y0261049D02*
X0211314Y0261049D01*
X0203467Y0261049D02*
X0203467Y0265315D01*
X0201334Y0265315D01*
X0201334Y0264604D01*
X0196077Y0266027D02*
X0196077Y0262471D01*
X0196076Y0262471D02*
X0196074Y0262397D01*
X0196068Y0262322D01*
X0196058Y0262249D01*
X0196045Y0262175D01*
X0196028Y0262103D01*
X0196006Y0262032D01*
X0195982Y0261961D01*
X0195953Y0261893D01*
X0195921Y0261825D01*
X0195885Y0261760D01*
X0195847Y0261697D01*
X0195804Y0261635D01*
X0195759Y0261576D01*
X0195711Y0261519D01*
X0195660Y0261465D01*
X0195606Y0261414D01*
X0195549Y0261366D01*
X0195490Y0261321D01*
X0195428Y0261278D01*
X0195365Y0261240D01*
X0195300Y0261204D01*
X0195232Y0261172D01*
X0195164Y0261143D01*
X0195093Y0261119D01*
X0195022Y0261097D01*
X0194950Y0261080D01*
X0194876Y0261067D01*
X0194803Y0261057D01*
X0194728Y0261051D01*
X0194654Y0261049D01*
X0193232Y0261049D01*
X0190987Y0262471D02*
X0190987Y0263893D01*
X0190985Y0263967D01*
X0190979Y0264042D01*
X0190969Y0264115D01*
X0190956Y0264189D01*
X0190939Y0264261D01*
X0190917Y0264332D01*
X0190893Y0264403D01*
X0190864Y0264471D01*
X0190832Y0264539D01*
X0190796Y0264604D01*
X0190758Y0264667D01*
X0190715Y0264729D01*
X0190670Y0264788D01*
X0190622Y0264845D01*
X0190571Y0264899D01*
X0190517Y0264950D01*
X0190460Y0264998D01*
X0190401Y0265043D01*
X0190339Y0265086D01*
X0190276Y0265124D01*
X0190211Y0265160D01*
X0190143Y0265192D01*
X0190075Y0265221D01*
X0190004Y0265245D01*
X0189933Y0265267D01*
X0189861Y0265284D01*
X0189787Y0265297D01*
X0189714Y0265307D01*
X0189639Y0265313D01*
X0189565Y0265315D01*
X0189491Y0265313D01*
X0189416Y0265307D01*
X0189343Y0265297D01*
X0189269Y0265284D01*
X0189197Y0265267D01*
X0189126Y0265245D01*
X0189055Y0265221D01*
X0188987Y0265192D01*
X0188919Y0265160D01*
X0188854Y0265124D01*
X0188791Y0265086D01*
X0188729Y0265043D01*
X0188670Y0264998D01*
X0188613Y0264950D01*
X0188559Y0264899D01*
X0188508Y0264845D01*
X0188460Y0264788D01*
X0188415Y0264729D01*
X0188372Y0264667D01*
X0188334Y0264604D01*
X0188298Y0264539D01*
X0188266Y0264471D01*
X0188237Y0264403D01*
X0188213Y0264332D01*
X0188191Y0264261D01*
X0188174Y0264189D01*
X0188161Y0264115D01*
X0188151Y0264042D01*
X0188145Y0263967D01*
X0188143Y0263893D01*
X0188143Y0262471D01*
X0188145Y0262397D01*
X0188151Y0262322D01*
X0188161Y0262249D01*
X0188174Y0262175D01*
X0188191Y0262103D01*
X0188213Y0262032D01*
X0188237Y0261961D01*
X0188266Y0261893D01*
X0188298Y0261825D01*
X0188334Y0261760D01*
X0188372Y0261697D01*
X0188415Y0261635D01*
X0188460Y0261576D01*
X0188508Y0261519D01*
X0188559Y0261465D01*
X0188613Y0261414D01*
X0188670Y0261366D01*
X0188729Y0261321D01*
X0188791Y0261278D01*
X0188854Y0261240D01*
X0188919Y0261204D01*
X0188987Y0261172D01*
X0189055Y0261143D01*
X0189126Y0261119D01*
X0189197Y0261097D01*
X0189269Y0261080D01*
X0189343Y0261067D01*
X0189416Y0261057D01*
X0189491Y0261051D01*
X0189565Y0261049D01*
X0189639Y0261051D01*
X0189714Y0261057D01*
X0189787Y0261067D01*
X0189861Y0261080D01*
X0189933Y0261097D01*
X0190004Y0261119D01*
X0190075Y0261143D01*
X0190143Y0261172D01*
X0190211Y0261204D01*
X0190276Y0261240D01*
X0190339Y0261278D01*
X0190401Y0261321D01*
X0190460Y0261366D01*
X0190517Y0261414D01*
X0190571Y0261465D01*
X0190622Y0261519D01*
X0190670Y0261576D01*
X0190715Y0261635D01*
X0190758Y0261697D01*
X0190796Y0261760D01*
X0190832Y0261825D01*
X0190864Y0261893D01*
X0190893Y0261961D01*
X0190917Y0262032D01*
X0190939Y0262103D01*
X0190956Y0262175D01*
X0190969Y0262249D01*
X0190979Y0262322D01*
X0190985Y0262397D01*
X0190987Y0262471D01*
X0194654Y0267449D02*
X0194728Y0267447D01*
X0194803Y0267441D01*
X0194876Y0267431D01*
X0194950Y0267418D01*
X0195022Y0267401D01*
X0195093Y0267379D01*
X0195164Y0267355D01*
X0195232Y0267326D01*
X0195300Y0267294D01*
X0195365Y0267258D01*
X0195428Y0267220D01*
X0195490Y0267177D01*
X0195549Y0267132D01*
X0195606Y0267084D01*
X0195660Y0267033D01*
X0195711Y0266979D01*
X0195759Y0266922D01*
X0195804Y0266863D01*
X0195847Y0266801D01*
X0195885Y0266738D01*
X0195921Y0266673D01*
X0195953Y0266605D01*
X0195982Y0266537D01*
X0196006Y0266466D01*
X0196028Y0266395D01*
X0196045Y0266323D01*
X0196058Y0266249D01*
X0196068Y0266176D01*
X0196074Y0266101D01*
X0196076Y0266027D01*
X0194654Y0267449D02*
X0193232Y0267449D01*
X0185449Y0265315D02*
X0183671Y0265315D01*
X0183671Y0265316D02*
X0183607Y0265314D01*
X0183542Y0265308D01*
X0183479Y0265299D01*
X0183416Y0265285D01*
X0183354Y0265268D01*
X0183293Y0265247D01*
X0183233Y0265222D01*
X0183175Y0265194D01*
X0183119Y0265162D01*
X0183065Y0265127D01*
X0183013Y0265089D01*
X0182963Y0265048D01*
X0182917Y0265003D01*
X0182872Y0264957D01*
X0182831Y0264907D01*
X0182793Y0264855D01*
X0182758Y0264801D01*
X0182726Y0264745D01*
X0182698Y0264687D01*
X0182673Y0264627D01*
X0182652Y0264566D01*
X0182635Y0264504D01*
X0182621Y0264441D01*
X0182612Y0264378D01*
X0182606Y0264313D01*
X0182604Y0264249D01*
X0182604Y0261049D01*
X0185449Y0261049D02*
X0185449Y0265315D01*
X0180421Y0265315D02*
X0178288Y0265315D01*
X0175774Y0265315D02*
X0175774Y0261049D01*
X0178288Y0261049D02*
X0178643Y0261049D01*
X0178643Y0261048D02*
X0178707Y0261050D01*
X0178772Y0261056D01*
X0178835Y0261065D01*
X0178898Y0261079D01*
X0178960Y0261096D01*
X0179021Y0261117D01*
X0179081Y0261142D01*
X0179139Y0261170D01*
X0179195Y0261202D01*
X0179249Y0261237D01*
X0179301Y0261275D01*
X0179351Y0261316D01*
X0179397Y0261361D01*
X0179442Y0261407D01*
X0179483Y0261457D01*
X0179521Y0261509D01*
X0179556Y0261563D01*
X0179588Y0261619D01*
X0179616Y0261677D01*
X0179641Y0261737D01*
X0179662Y0261798D01*
X0179679Y0261860D01*
X0179693Y0261923D01*
X0179702Y0261986D01*
X0179708Y0262051D01*
X0179710Y0262115D01*
X0179710Y0267449D01*
X0175774Y0265315D02*
X0173641Y0265315D01*
X0173641Y0264604D01*
X0171705Y0263893D02*
X0171705Y0262471D01*
X0171703Y0262397D01*
X0171697Y0262322D01*
X0171687Y0262249D01*
X0171674Y0262175D01*
X0171657Y0262103D01*
X0171635Y0262032D01*
X0171611Y0261961D01*
X0171582Y0261893D01*
X0171550Y0261825D01*
X0171514Y0261760D01*
X0171476Y0261697D01*
X0171433Y0261635D01*
X0171388Y0261576D01*
X0171340Y0261519D01*
X0171289Y0261465D01*
X0171235Y0261414D01*
X0171178Y0261366D01*
X0171119Y0261321D01*
X0171057Y0261278D01*
X0170994Y0261240D01*
X0170929Y0261204D01*
X0170861Y0261172D01*
X0170793Y0261143D01*
X0170722Y0261119D01*
X0170651Y0261097D01*
X0170579Y0261080D01*
X0170505Y0261067D01*
X0170432Y0261057D01*
X0170357Y0261051D01*
X0170283Y0261049D01*
X0170209Y0261051D01*
X0170134Y0261057D01*
X0170061Y0261067D01*
X0169987Y0261080D01*
X0169915Y0261097D01*
X0169844Y0261119D01*
X0169773Y0261143D01*
X0169705Y0261172D01*
X0169637Y0261204D01*
X0169572Y0261240D01*
X0169509Y0261278D01*
X0169447Y0261321D01*
X0169388Y0261366D01*
X0169331Y0261414D01*
X0169277Y0261465D01*
X0169226Y0261519D01*
X0169178Y0261576D01*
X0169133Y0261635D01*
X0169090Y0261697D01*
X0169052Y0261760D01*
X0169016Y0261825D01*
X0168984Y0261893D01*
X0168955Y0261961D01*
X0168931Y0262032D01*
X0168909Y0262103D01*
X0168892Y0262175D01*
X0168879Y0262249D01*
X0168869Y0262322D01*
X0168863Y0262397D01*
X0168861Y0262471D01*
X0168860Y0262471D02*
X0168860Y0263893D01*
X0168861Y0263893D02*
X0168863Y0263967D01*
X0168869Y0264042D01*
X0168879Y0264115D01*
X0168892Y0264189D01*
X0168909Y0264261D01*
X0168931Y0264332D01*
X0168955Y0264403D01*
X0168984Y0264471D01*
X0169016Y0264539D01*
X0169052Y0264604D01*
X0169090Y0264667D01*
X0169133Y0264729D01*
X0169178Y0264788D01*
X0169226Y0264845D01*
X0169277Y0264899D01*
X0169331Y0264950D01*
X0169388Y0264998D01*
X0169447Y0265043D01*
X0169509Y0265086D01*
X0169572Y0265124D01*
X0169637Y0265160D01*
X0169705Y0265192D01*
X0169773Y0265221D01*
X0169844Y0265245D01*
X0169915Y0265267D01*
X0169987Y0265284D01*
X0170061Y0265297D01*
X0170134Y0265307D01*
X0170209Y0265313D01*
X0170283Y0265315D01*
X0170357Y0265313D01*
X0170432Y0265307D01*
X0170505Y0265297D01*
X0170579Y0265284D01*
X0170651Y0265267D01*
X0170722Y0265245D01*
X0170793Y0265221D01*
X0170861Y0265192D01*
X0170929Y0265160D01*
X0170994Y0265124D01*
X0171057Y0265086D01*
X0171119Y0265043D01*
X0171178Y0264998D01*
X0171235Y0264950D01*
X0171289Y0264899D01*
X0171340Y0264845D01*
X0171388Y0264788D01*
X0171433Y0264729D01*
X0171476Y0264667D01*
X0171514Y0264604D01*
X0171550Y0264539D01*
X0171582Y0264471D01*
X0171611Y0264403D01*
X0171635Y0264332D01*
X0171657Y0264261D01*
X0171674Y0264189D01*
X0171687Y0264115D01*
X0171697Y0264042D01*
X0171703Y0263967D01*
X0171705Y0263893D01*
X0166278Y0262115D02*
X0166278Y0267449D01*
X0162996Y0267449D02*
X0162996Y0262115D01*
X0162994Y0262051D01*
X0162988Y0261986D01*
X0162979Y0261923D01*
X0162965Y0261860D01*
X0162948Y0261798D01*
X0162927Y0261737D01*
X0162902Y0261677D01*
X0162874Y0261619D01*
X0162842Y0261563D01*
X0162807Y0261509D01*
X0162769Y0261457D01*
X0162728Y0261407D01*
X0162683Y0261361D01*
X0162637Y0261316D01*
X0162587Y0261275D01*
X0162535Y0261237D01*
X0162481Y0261202D01*
X0162425Y0261170D01*
X0162367Y0261142D01*
X0162307Y0261117D01*
X0162246Y0261096D01*
X0162184Y0261079D01*
X0162121Y0261065D01*
X0162058Y0261056D01*
X0161993Y0261050D01*
X0161929Y0261048D01*
X0159807Y0262115D02*
X0159807Y0263893D01*
X0159807Y0263182D02*
X0156963Y0263182D01*
X0156963Y0263893D01*
X0156965Y0263967D01*
X0156971Y0264042D01*
X0156981Y0264115D01*
X0156994Y0264189D01*
X0157011Y0264261D01*
X0157033Y0264332D01*
X0157057Y0264403D01*
X0157086Y0264471D01*
X0157118Y0264539D01*
X0157154Y0264604D01*
X0157192Y0264667D01*
X0157235Y0264729D01*
X0157280Y0264788D01*
X0157328Y0264845D01*
X0157379Y0264899D01*
X0157433Y0264950D01*
X0157490Y0264998D01*
X0157549Y0265043D01*
X0157611Y0265086D01*
X0157674Y0265124D01*
X0157739Y0265160D01*
X0157807Y0265192D01*
X0157875Y0265221D01*
X0157946Y0265245D01*
X0158017Y0265267D01*
X0158089Y0265284D01*
X0158163Y0265297D01*
X0158236Y0265307D01*
X0158311Y0265313D01*
X0158385Y0265315D01*
X0158459Y0265313D01*
X0158534Y0265307D01*
X0158607Y0265297D01*
X0158681Y0265284D01*
X0158753Y0265267D01*
X0158824Y0265245D01*
X0158895Y0265221D01*
X0158963Y0265192D01*
X0159031Y0265160D01*
X0159096Y0265124D01*
X0159159Y0265086D01*
X0159221Y0265043D01*
X0159280Y0264998D01*
X0159337Y0264950D01*
X0159391Y0264899D01*
X0159442Y0264845D01*
X0159490Y0264788D01*
X0159535Y0264729D01*
X0159578Y0264667D01*
X0159616Y0264604D01*
X0159652Y0264539D01*
X0159684Y0264471D01*
X0159713Y0264403D01*
X0159737Y0264332D01*
X0159759Y0264261D01*
X0159776Y0264189D01*
X0159789Y0264115D01*
X0159799Y0264042D01*
X0159805Y0263967D01*
X0159807Y0263893D01*
X0159807Y0262115D02*
X0159805Y0262051D01*
X0159799Y0261986D01*
X0159790Y0261923D01*
X0159776Y0261860D01*
X0159759Y0261798D01*
X0159738Y0261737D01*
X0159713Y0261677D01*
X0159685Y0261619D01*
X0159653Y0261563D01*
X0159618Y0261509D01*
X0159580Y0261457D01*
X0159539Y0261407D01*
X0159494Y0261361D01*
X0159448Y0261316D01*
X0159398Y0261275D01*
X0159346Y0261237D01*
X0159292Y0261202D01*
X0159236Y0261170D01*
X0159178Y0261142D01*
X0159118Y0261117D01*
X0159057Y0261096D01*
X0158995Y0261079D01*
X0158932Y0261065D01*
X0158869Y0261056D01*
X0158804Y0261050D01*
X0158740Y0261048D01*
X0158740Y0261049D02*
X0156963Y0261049D01*
X0154235Y0261049D02*
X0154235Y0265315D01*
X0152102Y0265315D01*
X0152102Y0264604D01*
X0165211Y0261048D02*
X0165275Y0261050D01*
X0165340Y0261056D01*
X0165403Y0261065D01*
X0165466Y0261079D01*
X0165528Y0261096D01*
X0165589Y0261117D01*
X0165649Y0261142D01*
X0165707Y0261170D01*
X0165763Y0261202D01*
X0165817Y0261237D01*
X0165869Y0261275D01*
X0165919Y0261316D01*
X0165965Y0261361D01*
X0166010Y0261407D01*
X0166051Y0261457D01*
X0166089Y0261509D01*
X0166124Y0261563D01*
X0166156Y0261619D01*
X0166184Y0261677D01*
X0166209Y0261737D01*
X0166230Y0261798D01*
X0166247Y0261860D01*
X0166261Y0261923D01*
X0166270Y0261986D01*
X0166276Y0262051D01*
X0166278Y0262115D01*
X0179493Y0237528D02*
X0181271Y0236105D01*
X0196724Y0237528D02*
X0198502Y0236105D01*
X0157886Y0234328D02*
X0157884Y0234187D01*
X0157878Y0234047D01*
X0157869Y0233906D01*
X0157856Y0233766D01*
X0157839Y0233626D01*
X0157819Y0233487D01*
X0157794Y0233349D01*
X0157766Y0233211D01*
X0157735Y0233074D01*
X0157699Y0232937D01*
X0157660Y0232802D01*
X0157618Y0232668D01*
X0157572Y0232535D01*
X0157522Y0232403D01*
X0157469Y0232273D01*
X0157413Y0232144D01*
X0157353Y0232017D01*
X0351497Y0319804D02*
X0353859Y0319804D01*
X0353859Y0324528D02*
X0351497Y0324528D01*
D12*
X0133111Y0150906D02*
X0133111Y0111536D01*
X0102363Y0111536D01*
X0102363Y0072166D01*
X0133111Y0072166D01*
X0133111Y0111536D01*
X0102363Y0111536D01*
X0102363Y0150906D01*
X0133111Y0150906D01*
D13*
X0263229Y0032284D02*
X0278977Y0032284D01*
X0279101Y0032282D01*
X0279224Y0032276D01*
X0279348Y0032267D01*
X0279470Y0032253D01*
X0279593Y0032236D01*
X0279715Y0032214D01*
X0279836Y0032189D01*
X0279956Y0032160D01*
X0280075Y0032128D01*
X0280194Y0032091D01*
X0280311Y0032051D01*
X0280426Y0032008D01*
X0280541Y0031960D01*
X0280653Y0031909D01*
X0280764Y0031855D01*
X0280874Y0031797D01*
X0280981Y0031736D01*
X0281087Y0031671D01*
X0281190Y0031603D01*
X0281291Y0031532D01*
X0281390Y0031458D01*
X0281487Y0031381D01*
X0281581Y0031300D01*
X0281672Y0031217D01*
X0281761Y0031131D01*
X0281847Y0031042D01*
X0281930Y0030951D01*
X0282011Y0030857D01*
X0282088Y0030760D01*
X0282162Y0030661D01*
X0282233Y0030560D01*
X0282301Y0030457D01*
X0282366Y0030351D01*
X0282427Y0030244D01*
X0282485Y0030134D01*
X0282539Y0030023D01*
X0282590Y0029911D01*
X0282638Y0029796D01*
X0282681Y0029681D01*
X0282721Y0029564D01*
X0282758Y0029445D01*
X0282790Y0029326D01*
X0282819Y0029206D01*
X0282844Y0029085D01*
X0282866Y0028963D01*
X0282883Y0028840D01*
X0282897Y0028718D01*
X0282906Y0028594D01*
X0282912Y0028471D01*
X0282914Y0028347D01*
X0282912Y0028223D01*
X0282906Y0028100D01*
X0282897Y0027976D01*
X0282883Y0027854D01*
X0282866Y0027731D01*
X0282844Y0027609D01*
X0282819Y0027488D01*
X0282790Y0027368D01*
X0282758Y0027249D01*
X0282721Y0027130D01*
X0282681Y0027013D01*
X0282638Y0026898D01*
X0282590Y0026783D01*
X0282539Y0026671D01*
X0282485Y0026560D01*
X0282427Y0026450D01*
X0282366Y0026343D01*
X0282301Y0026237D01*
X0282233Y0026134D01*
X0282162Y0026033D01*
X0282088Y0025934D01*
X0282011Y0025837D01*
X0281930Y0025743D01*
X0281847Y0025652D01*
X0281761Y0025563D01*
X0281672Y0025477D01*
X0281581Y0025394D01*
X0281487Y0025313D01*
X0281390Y0025236D01*
X0281291Y0025162D01*
X0281190Y0025091D01*
X0281087Y0025023D01*
X0280981Y0024958D01*
X0280874Y0024897D01*
X0280764Y0024839D01*
X0280653Y0024785D01*
X0280541Y0024734D01*
X0280426Y0024686D01*
X0280311Y0024643D01*
X0280194Y0024603D01*
X0280075Y0024566D01*
X0279956Y0024534D01*
X0279836Y0024505D01*
X0279715Y0024480D01*
X0279593Y0024458D01*
X0279470Y0024441D01*
X0279348Y0024427D01*
X0279224Y0024418D01*
X0279101Y0024412D01*
X0278977Y0024410D01*
X0263229Y0024410D01*
X0263105Y0024412D01*
X0262982Y0024418D01*
X0262858Y0024427D01*
X0262736Y0024441D01*
X0262613Y0024458D01*
X0262491Y0024480D01*
X0262370Y0024505D01*
X0262250Y0024534D01*
X0262131Y0024566D01*
X0262012Y0024603D01*
X0261895Y0024643D01*
X0261780Y0024686D01*
X0261665Y0024734D01*
X0261553Y0024785D01*
X0261442Y0024839D01*
X0261332Y0024897D01*
X0261225Y0024958D01*
X0261119Y0025023D01*
X0261016Y0025091D01*
X0260915Y0025162D01*
X0260816Y0025236D01*
X0260719Y0025313D01*
X0260625Y0025394D01*
X0260534Y0025477D01*
X0260445Y0025563D01*
X0260359Y0025652D01*
X0260276Y0025743D01*
X0260195Y0025837D01*
X0260118Y0025934D01*
X0260044Y0026033D01*
X0259973Y0026134D01*
X0259905Y0026237D01*
X0259840Y0026343D01*
X0259779Y0026450D01*
X0259721Y0026560D01*
X0259667Y0026671D01*
X0259616Y0026783D01*
X0259568Y0026898D01*
X0259525Y0027013D01*
X0259485Y0027130D01*
X0259448Y0027249D01*
X0259416Y0027368D01*
X0259387Y0027488D01*
X0259362Y0027609D01*
X0259340Y0027731D01*
X0259323Y0027854D01*
X0259309Y0027976D01*
X0259300Y0028100D01*
X0259294Y0028223D01*
X0259292Y0028347D01*
X0259294Y0028471D01*
X0259300Y0028594D01*
X0259309Y0028718D01*
X0259323Y0028840D01*
X0259340Y0028963D01*
X0259362Y0029085D01*
X0259387Y0029206D01*
X0259416Y0029326D01*
X0259448Y0029445D01*
X0259485Y0029564D01*
X0259525Y0029681D01*
X0259568Y0029796D01*
X0259616Y0029911D01*
X0259667Y0030023D01*
X0259721Y0030134D01*
X0259779Y0030244D01*
X0259840Y0030351D01*
X0259905Y0030457D01*
X0259973Y0030560D01*
X0260044Y0030661D01*
X0260118Y0030760D01*
X0260195Y0030857D01*
X0260276Y0030951D01*
X0260359Y0031042D01*
X0260445Y0031131D01*
X0260534Y0031217D01*
X0260625Y0031300D01*
X0260719Y0031381D01*
X0260816Y0031458D01*
X0260915Y0031532D01*
X0261016Y0031603D01*
X0261119Y0031671D01*
X0261225Y0031736D01*
X0261332Y0031797D01*
X0261442Y0031855D01*
X0261553Y0031909D01*
X0261665Y0031960D01*
X0261780Y0032008D01*
X0261895Y0032051D01*
X0262012Y0032091D01*
X0262131Y0032128D01*
X0262250Y0032160D01*
X0262370Y0032189D01*
X0262491Y0032214D01*
X0262613Y0032236D01*
X0262736Y0032253D01*
X0262858Y0032267D01*
X0262982Y0032276D01*
X0263105Y0032282D01*
X0263229Y0032284D01*
X0302599Y0032284D02*
X0318347Y0032284D01*
X0318471Y0032282D01*
X0318594Y0032276D01*
X0318718Y0032267D01*
X0318840Y0032253D01*
X0318963Y0032236D01*
X0319085Y0032214D01*
X0319206Y0032189D01*
X0319326Y0032160D01*
X0319445Y0032128D01*
X0319564Y0032091D01*
X0319681Y0032051D01*
X0319796Y0032008D01*
X0319911Y0031960D01*
X0320023Y0031909D01*
X0320134Y0031855D01*
X0320244Y0031797D01*
X0320351Y0031736D01*
X0320457Y0031671D01*
X0320560Y0031603D01*
X0320661Y0031532D01*
X0320760Y0031458D01*
X0320857Y0031381D01*
X0320951Y0031300D01*
X0321042Y0031217D01*
X0321131Y0031131D01*
X0321217Y0031042D01*
X0321300Y0030951D01*
X0321381Y0030857D01*
X0321458Y0030760D01*
X0321532Y0030661D01*
X0321603Y0030560D01*
X0321671Y0030457D01*
X0321736Y0030351D01*
X0321797Y0030244D01*
X0321855Y0030134D01*
X0321909Y0030023D01*
X0321960Y0029911D01*
X0322008Y0029796D01*
X0322051Y0029681D01*
X0322091Y0029564D01*
X0322128Y0029445D01*
X0322160Y0029326D01*
X0322189Y0029206D01*
X0322214Y0029085D01*
X0322236Y0028963D01*
X0322253Y0028840D01*
X0322267Y0028718D01*
X0322276Y0028594D01*
X0322282Y0028471D01*
X0322284Y0028347D01*
X0322282Y0028223D01*
X0322276Y0028100D01*
X0322267Y0027976D01*
X0322253Y0027854D01*
X0322236Y0027731D01*
X0322214Y0027609D01*
X0322189Y0027488D01*
X0322160Y0027368D01*
X0322128Y0027249D01*
X0322091Y0027130D01*
X0322051Y0027013D01*
X0322008Y0026898D01*
X0321960Y0026783D01*
X0321909Y0026671D01*
X0321855Y0026560D01*
X0321797Y0026450D01*
X0321736Y0026343D01*
X0321671Y0026237D01*
X0321603Y0026134D01*
X0321532Y0026033D01*
X0321458Y0025934D01*
X0321381Y0025837D01*
X0321300Y0025743D01*
X0321217Y0025652D01*
X0321131Y0025563D01*
X0321042Y0025477D01*
X0320951Y0025394D01*
X0320857Y0025313D01*
X0320760Y0025236D01*
X0320661Y0025162D01*
X0320560Y0025091D01*
X0320457Y0025023D01*
X0320351Y0024958D01*
X0320244Y0024897D01*
X0320134Y0024839D01*
X0320023Y0024785D01*
X0319911Y0024734D01*
X0319796Y0024686D01*
X0319681Y0024643D01*
X0319564Y0024603D01*
X0319445Y0024566D01*
X0319326Y0024534D01*
X0319206Y0024505D01*
X0319085Y0024480D01*
X0318963Y0024458D01*
X0318840Y0024441D01*
X0318718Y0024427D01*
X0318594Y0024418D01*
X0318471Y0024412D01*
X0318347Y0024410D01*
X0302599Y0024410D01*
X0302475Y0024412D01*
X0302352Y0024418D01*
X0302228Y0024427D01*
X0302106Y0024441D01*
X0301983Y0024458D01*
X0301861Y0024480D01*
X0301740Y0024505D01*
X0301620Y0024534D01*
X0301501Y0024566D01*
X0301382Y0024603D01*
X0301265Y0024643D01*
X0301150Y0024686D01*
X0301035Y0024734D01*
X0300923Y0024785D01*
X0300812Y0024839D01*
X0300702Y0024897D01*
X0300595Y0024958D01*
X0300489Y0025023D01*
X0300386Y0025091D01*
X0300285Y0025162D01*
X0300186Y0025236D01*
X0300089Y0025313D01*
X0299995Y0025394D01*
X0299904Y0025477D01*
X0299815Y0025563D01*
X0299729Y0025652D01*
X0299646Y0025743D01*
X0299565Y0025837D01*
X0299488Y0025934D01*
X0299414Y0026033D01*
X0299343Y0026134D01*
X0299275Y0026237D01*
X0299210Y0026343D01*
X0299149Y0026450D01*
X0299091Y0026560D01*
X0299037Y0026671D01*
X0298986Y0026783D01*
X0298938Y0026898D01*
X0298895Y0027013D01*
X0298855Y0027130D01*
X0298818Y0027249D01*
X0298786Y0027368D01*
X0298757Y0027488D01*
X0298732Y0027609D01*
X0298710Y0027731D01*
X0298693Y0027854D01*
X0298679Y0027976D01*
X0298670Y0028100D01*
X0298664Y0028223D01*
X0298662Y0028347D01*
X0298664Y0028471D01*
X0298670Y0028594D01*
X0298679Y0028718D01*
X0298693Y0028840D01*
X0298710Y0028963D01*
X0298732Y0029085D01*
X0298757Y0029206D01*
X0298786Y0029326D01*
X0298818Y0029445D01*
X0298855Y0029564D01*
X0298895Y0029681D01*
X0298938Y0029796D01*
X0298986Y0029911D01*
X0299037Y0030023D01*
X0299091Y0030134D01*
X0299149Y0030244D01*
X0299210Y0030351D01*
X0299275Y0030457D01*
X0299343Y0030560D01*
X0299414Y0030661D01*
X0299488Y0030760D01*
X0299565Y0030857D01*
X0299646Y0030951D01*
X0299729Y0031042D01*
X0299815Y0031131D01*
X0299904Y0031217D01*
X0299995Y0031300D01*
X0300089Y0031381D01*
X0300186Y0031458D01*
X0300285Y0031532D01*
X0300386Y0031603D01*
X0300489Y0031671D01*
X0300595Y0031736D01*
X0300702Y0031797D01*
X0300812Y0031855D01*
X0300923Y0031909D01*
X0301035Y0031960D01*
X0301150Y0032008D01*
X0301265Y0032051D01*
X0301382Y0032091D01*
X0301501Y0032128D01*
X0301620Y0032160D01*
X0301740Y0032189D01*
X0301861Y0032214D01*
X0301983Y0032236D01*
X0302106Y0032253D01*
X0302228Y0032267D01*
X0302352Y0032276D01*
X0302475Y0032282D01*
X0302599Y0032284D01*
M02*
