G75*
%MOIN*%
%OFA0B0*%
%FSLAX25Y25*%
%IPPOS*%
%LPD*%
%AMOC8*
5,1,8,0,0,1.08239X$1,22.5*
%
%ADD10C,0.00000*%
%ADD11R,0.05118X0.05906*%
%ADD12R,0.05906X0.05118*%
%ADD13R,0.06299X0.07087*%
%ADD14R,0.17835X0.27559*%
%ADD15R,0.07874X0.07874*%
%ADD16R,0.07874X0.17717*%
%ADD17C,0.00500*%
%ADD18R,0.03150X0.04724*%
D10*
X0009174Y0009174D02*
X0009174Y0402875D01*
X0398938Y0403269D01*
X0398938Y0009568D01*
X0009174Y0009174D01*
D11*
X0375513Y0316261D03*
X0382993Y0316261D03*
D12*
X0375316Y0324331D03*
X0375316Y0331812D03*
X0345788Y0312127D03*
X0345788Y0304646D03*
X0335946Y0304646D03*
X0335946Y0312127D03*
D13*
X0229253Y0090670D03*
X0218229Y0090670D03*
X0209213Y0083190D03*
X0217914Y0078859D03*
X0228938Y0078859D03*
X0198190Y0083190D03*
D14*
X0123091Y0091851D03*
X0123091Y0131221D03*
D15*
X0106418Y0141182D03*
X0106418Y0101812D03*
D16*
X0106418Y0086772D03*
X0106418Y0126143D03*
D17*
X0253293Y0034733D02*
X0252485Y0033254D01*
X0251897Y0031675D01*
X0251538Y0030028D01*
X0251418Y0028347D01*
X0251538Y0026666D01*
X0251897Y0025020D01*
X0252485Y0023441D01*
X0253293Y0021962D01*
X0254303Y0020613D01*
X0255495Y0019421D01*
X0256844Y0018411D01*
X0258323Y0017604D01*
X0259902Y0017015D01*
X0261548Y0016656D01*
X0263229Y0016536D01*
X0286851Y0016536D01*
X0287289Y0016586D01*
X0287705Y0016731D01*
X0288079Y0016966D01*
X0288390Y0017277D01*
X0288625Y0017651D01*
X0288770Y0018067D01*
X0288820Y0018505D01*
X0288820Y0038190D01*
X0288770Y0038628D01*
X0288625Y0039044D01*
X0288390Y0039417D01*
X0288079Y0039729D01*
X0287705Y0039963D01*
X0287289Y0040109D01*
X0286851Y0040158D01*
X0263229Y0040158D01*
X0261548Y0040038D01*
X0259902Y0039680D01*
X0258323Y0039091D01*
X0256844Y0038283D01*
X0255495Y0037273D01*
X0254303Y0036082D01*
X0253293Y0034733D01*
X0253220Y0034598D02*
X0288820Y0034598D01*
X0288820Y0034100D02*
X0252947Y0034100D01*
X0252675Y0033601D02*
X0288820Y0033601D01*
X0288820Y0033103D02*
X0252429Y0033103D01*
X0252243Y0032604D02*
X0288820Y0032604D01*
X0288820Y0032106D02*
X0252057Y0032106D01*
X0251882Y0031607D02*
X0288820Y0031607D01*
X0288820Y0031109D02*
X0251773Y0031109D01*
X0251665Y0030610D02*
X0288820Y0030610D01*
X0288820Y0030111D02*
X0251556Y0030111D01*
X0251509Y0029613D02*
X0288820Y0029613D01*
X0288820Y0029114D02*
X0251473Y0029114D01*
X0251437Y0028616D02*
X0288820Y0028616D01*
X0288820Y0028117D02*
X0251435Y0028117D01*
X0251470Y0027619D02*
X0288820Y0027619D01*
X0288820Y0027120D02*
X0251506Y0027120D01*
X0251548Y0026622D02*
X0288820Y0026622D01*
X0288820Y0026123D02*
X0251656Y0026123D01*
X0251765Y0025625D02*
X0288820Y0025625D01*
X0288820Y0025126D02*
X0251873Y0025126D01*
X0252043Y0024628D02*
X0288820Y0024628D01*
X0288820Y0024129D02*
X0252229Y0024129D01*
X0252415Y0023631D02*
X0288820Y0023631D01*
X0288820Y0023132D02*
X0252654Y0023132D01*
X0252926Y0022634D02*
X0288820Y0022634D01*
X0288820Y0022135D02*
X0253198Y0022135D01*
X0253536Y0021637D02*
X0288820Y0021637D01*
X0288820Y0021138D02*
X0253909Y0021138D01*
X0254283Y0020640D02*
X0288820Y0020640D01*
X0288820Y0020141D02*
X0254774Y0020141D01*
X0255273Y0019643D02*
X0288820Y0019643D01*
X0288820Y0019144D02*
X0255864Y0019144D01*
X0256530Y0018646D02*
X0288820Y0018646D01*
X0288779Y0018147D02*
X0257327Y0018147D01*
X0258240Y0017649D02*
X0288624Y0017649D01*
X0288263Y0017150D02*
X0259538Y0017150D01*
X0261615Y0016652D02*
X0287478Y0016652D01*
X0292806Y0018067D02*
X0292757Y0018505D01*
X0292757Y0038190D01*
X0292806Y0038628D01*
X0292952Y0039044D01*
X0293186Y0039417D01*
X0293498Y0039729D01*
X0293871Y0039963D01*
X0294287Y0040109D01*
X0294725Y0040158D01*
X0318347Y0040158D01*
X0320028Y0040038D01*
X0321675Y0039680D01*
X0323254Y0039091D01*
X0324733Y0038283D01*
X0326082Y0037273D01*
X0327273Y0036082D01*
X0328283Y0034733D01*
X0329091Y0033254D01*
X0329680Y0031675D01*
X0330038Y0030028D01*
X0330158Y0028347D01*
X0330038Y0026666D01*
X0329680Y0025020D01*
X0329091Y0023441D01*
X0328283Y0021962D01*
X0327273Y0020613D01*
X0326082Y0019421D01*
X0324733Y0018411D01*
X0323254Y0017604D01*
X0321675Y0017015D01*
X0320028Y0016656D01*
X0318347Y0016536D01*
X0294725Y0016536D01*
X0294287Y0016586D01*
X0293871Y0016731D01*
X0293498Y0016966D01*
X0293186Y0017277D01*
X0292952Y0017651D01*
X0292806Y0018067D01*
X0292797Y0018147D02*
X0324249Y0018147D01*
X0325046Y0018646D02*
X0292757Y0018646D01*
X0292757Y0019144D02*
X0325712Y0019144D01*
X0326304Y0019643D02*
X0292757Y0019643D01*
X0292757Y0020141D02*
X0326802Y0020141D01*
X0327294Y0020640D02*
X0292757Y0020640D01*
X0292757Y0021138D02*
X0327667Y0021138D01*
X0328040Y0021637D02*
X0292757Y0021637D01*
X0292757Y0022135D02*
X0328378Y0022135D01*
X0328650Y0022634D02*
X0292757Y0022634D01*
X0292757Y0023132D02*
X0328923Y0023132D01*
X0329162Y0023631D02*
X0292757Y0023631D01*
X0292757Y0024129D02*
X0329348Y0024129D01*
X0329534Y0024628D02*
X0292757Y0024628D01*
X0292757Y0025126D02*
X0329703Y0025126D01*
X0329811Y0025625D02*
X0292757Y0025625D01*
X0292757Y0026123D02*
X0329920Y0026123D01*
X0330028Y0026622D02*
X0292757Y0026622D01*
X0292757Y0027120D02*
X0330071Y0027120D01*
X0330106Y0027619D02*
X0292757Y0027619D01*
X0292757Y0028117D02*
X0330142Y0028117D01*
X0330139Y0028616D02*
X0292757Y0028616D01*
X0292757Y0029114D02*
X0330103Y0029114D01*
X0330068Y0029613D02*
X0292757Y0029613D01*
X0292757Y0030111D02*
X0330020Y0030111D01*
X0329911Y0030610D02*
X0292757Y0030610D01*
X0292757Y0031109D02*
X0329803Y0031109D01*
X0329695Y0031607D02*
X0292757Y0031607D01*
X0292757Y0032106D02*
X0329519Y0032106D01*
X0329333Y0032604D02*
X0292757Y0032604D01*
X0292757Y0033103D02*
X0329147Y0033103D01*
X0328901Y0033601D02*
X0292757Y0033601D01*
X0292757Y0034100D02*
X0328629Y0034100D01*
X0328357Y0034598D02*
X0292757Y0034598D01*
X0292757Y0035097D02*
X0328011Y0035097D01*
X0327638Y0035595D02*
X0292757Y0035595D01*
X0292757Y0036094D02*
X0327262Y0036094D01*
X0326763Y0036592D02*
X0292757Y0036592D01*
X0292757Y0037091D02*
X0326265Y0037091D01*
X0325660Y0037589D02*
X0292757Y0037589D01*
X0292757Y0038088D02*
X0324994Y0038088D01*
X0324178Y0038586D02*
X0292801Y0038586D01*
X0292977Y0039085D02*
X0323265Y0039085D01*
X0321934Y0039583D02*
X0293352Y0039583D01*
X0294209Y0040082D02*
X0319418Y0040082D01*
X0318347Y0032284D02*
X0302599Y0032284D01*
X0302475Y0032282D01*
X0302352Y0032276D01*
X0302228Y0032267D01*
X0302106Y0032253D01*
X0301983Y0032236D01*
X0301861Y0032214D01*
X0301740Y0032189D01*
X0301620Y0032160D01*
X0301501Y0032128D01*
X0301382Y0032091D01*
X0301265Y0032051D01*
X0301150Y0032008D01*
X0301035Y0031960D01*
X0300923Y0031909D01*
X0300812Y0031855D01*
X0300702Y0031797D01*
X0300595Y0031736D01*
X0300489Y0031671D01*
X0300386Y0031603D01*
X0300285Y0031532D01*
X0300186Y0031458D01*
X0300089Y0031381D01*
X0299995Y0031300D01*
X0299904Y0031217D01*
X0299815Y0031131D01*
X0299729Y0031042D01*
X0299646Y0030951D01*
X0299565Y0030857D01*
X0299488Y0030760D01*
X0299414Y0030661D01*
X0299343Y0030560D01*
X0299275Y0030457D01*
X0299210Y0030351D01*
X0299149Y0030244D01*
X0299091Y0030134D01*
X0299037Y0030023D01*
X0298986Y0029911D01*
X0298938Y0029796D01*
X0298895Y0029681D01*
X0298855Y0029564D01*
X0298818Y0029445D01*
X0298786Y0029326D01*
X0298757Y0029206D01*
X0298732Y0029085D01*
X0298710Y0028963D01*
X0298693Y0028840D01*
X0298679Y0028718D01*
X0298670Y0028594D01*
X0298664Y0028471D01*
X0298662Y0028347D01*
X0298664Y0028223D01*
X0298670Y0028100D01*
X0298679Y0027976D01*
X0298693Y0027854D01*
X0298710Y0027731D01*
X0298732Y0027609D01*
X0298757Y0027488D01*
X0298786Y0027368D01*
X0298818Y0027249D01*
X0298855Y0027130D01*
X0298895Y0027013D01*
X0298938Y0026898D01*
X0298986Y0026783D01*
X0299037Y0026671D01*
X0299091Y0026560D01*
X0299149Y0026450D01*
X0299210Y0026343D01*
X0299275Y0026237D01*
X0299343Y0026134D01*
X0299414Y0026033D01*
X0299488Y0025934D01*
X0299565Y0025837D01*
X0299646Y0025743D01*
X0299729Y0025652D01*
X0299815Y0025563D01*
X0299904Y0025477D01*
X0299995Y0025394D01*
X0300089Y0025313D01*
X0300186Y0025236D01*
X0300285Y0025162D01*
X0300386Y0025091D01*
X0300489Y0025023D01*
X0300595Y0024958D01*
X0300702Y0024897D01*
X0300812Y0024839D01*
X0300923Y0024785D01*
X0301035Y0024734D01*
X0301150Y0024686D01*
X0301265Y0024643D01*
X0301382Y0024603D01*
X0301501Y0024566D01*
X0301620Y0024534D01*
X0301740Y0024505D01*
X0301861Y0024480D01*
X0301983Y0024458D01*
X0302106Y0024441D01*
X0302228Y0024427D01*
X0302352Y0024418D01*
X0302475Y0024412D01*
X0302599Y0024410D01*
X0318347Y0024410D01*
X0318471Y0024412D01*
X0318594Y0024418D01*
X0318718Y0024427D01*
X0318840Y0024441D01*
X0318963Y0024458D01*
X0319085Y0024480D01*
X0319206Y0024505D01*
X0319326Y0024534D01*
X0319445Y0024566D01*
X0319564Y0024603D01*
X0319681Y0024643D01*
X0319796Y0024686D01*
X0319911Y0024734D01*
X0320023Y0024785D01*
X0320134Y0024839D01*
X0320244Y0024897D01*
X0320351Y0024958D01*
X0320457Y0025023D01*
X0320560Y0025091D01*
X0320661Y0025162D01*
X0320760Y0025236D01*
X0320857Y0025313D01*
X0320951Y0025394D01*
X0321042Y0025477D01*
X0321131Y0025563D01*
X0321217Y0025652D01*
X0321300Y0025743D01*
X0321381Y0025837D01*
X0321458Y0025934D01*
X0321532Y0026033D01*
X0321603Y0026134D01*
X0321671Y0026237D01*
X0321736Y0026343D01*
X0321797Y0026450D01*
X0321855Y0026560D01*
X0321909Y0026671D01*
X0321960Y0026783D01*
X0322008Y0026898D01*
X0322051Y0027013D01*
X0322091Y0027130D01*
X0322128Y0027249D01*
X0322160Y0027368D01*
X0322189Y0027488D01*
X0322214Y0027609D01*
X0322236Y0027731D01*
X0322253Y0027854D01*
X0322267Y0027976D01*
X0322276Y0028100D01*
X0322282Y0028223D01*
X0322284Y0028347D01*
X0322282Y0028471D01*
X0322276Y0028594D01*
X0322267Y0028718D01*
X0322253Y0028840D01*
X0322236Y0028963D01*
X0322214Y0029085D01*
X0322189Y0029206D01*
X0322160Y0029326D01*
X0322128Y0029445D01*
X0322091Y0029564D01*
X0322051Y0029681D01*
X0322008Y0029796D01*
X0321960Y0029911D01*
X0321909Y0030023D01*
X0321855Y0030134D01*
X0321797Y0030244D01*
X0321736Y0030351D01*
X0321671Y0030457D01*
X0321603Y0030560D01*
X0321532Y0030661D01*
X0321458Y0030760D01*
X0321381Y0030857D01*
X0321300Y0030951D01*
X0321217Y0031042D01*
X0321131Y0031131D01*
X0321042Y0031217D01*
X0320951Y0031300D01*
X0320857Y0031381D01*
X0320760Y0031458D01*
X0320661Y0031532D01*
X0320560Y0031603D01*
X0320457Y0031671D01*
X0320351Y0031736D01*
X0320244Y0031797D01*
X0320134Y0031855D01*
X0320023Y0031909D01*
X0319911Y0031960D01*
X0319796Y0032008D01*
X0319681Y0032051D01*
X0319564Y0032091D01*
X0319445Y0032128D01*
X0319326Y0032160D01*
X0319206Y0032189D01*
X0319085Y0032214D01*
X0318963Y0032236D01*
X0318840Y0032253D01*
X0318718Y0032267D01*
X0318594Y0032276D01*
X0318471Y0032282D01*
X0318347Y0032284D01*
X0323336Y0017649D02*
X0292953Y0017649D01*
X0293313Y0017150D02*
X0322038Y0017150D01*
X0319962Y0016652D02*
X0294098Y0016652D01*
X0278977Y0024410D02*
X0263229Y0024410D01*
X0263105Y0024412D01*
X0262982Y0024418D01*
X0262858Y0024427D01*
X0262736Y0024441D01*
X0262613Y0024458D01*
X0262491Y0024480D01*
X0262370Y0024505D01*
X0262250Y0024534D01*
X0262131Y0024566D01*
X0262012Y0024603D01*
X0261895Y0024643D01*
X0261780Y0024686D01*
X0261665Y0024734D01*
X0261553Y0024785D01*
X0261442Y0024839D01*
X0261332Y0024897D01*
X0261225Y0024958D01*
X0261119Y0025023D01*
X0261016Y0025091D01*
X0260915Y0025162D01*
X0260816Y0025236D01*
X0260719Y0025313D01*
X0260625Y0025394D01*
X0260534Y0025477D01*
X0260445Y0025563D01*
X0260359Y0025652D01*
X0260276Y0025743D01*
X0260195Y0025837D01*
X0260118Y0025934D01*
X0260044Y0026033D01*
X0259973Y0026134D01*
X0259905Y0026237D01*
X0259840Y0026343D01*
X0259779Y0026450D01*
X0259721Y0026560D01*
X0259667Y0026671D01*
X0259616Y0026783D01*
X0259568Y0026898D01*
X0259525Y0027013D01*
X0259485Y0027130D01*
X0259448Y0027249D01*
X0259416Y0027368D01*
X0259387Y0027488D01*
X0259362Y0027609D01*
X0259340Y0027731D01*
X0259323Y0027854D01*
X0259309Y0027976D01*
X0259300Y0028100D01*
X0259294Y0028223D01*
X0259292Y0028347D01*
X0259294Y0028471D01*
X0259300Y0028594D01*
X0259309Y0028718D01*
X0259323Y0028840D01*
X0259340Y0028963D01*
X0259362Y0029085D01*
X0259387Y0029206D01*
X0259416Y0029326D01*
X0259448Y0029445D01*
X0259485Y0029564D01*
X0259525Y0029681D01*
X0259568Y0029796D01*
X0259616Y0029911D01*
X0259667Y0030023D01*
X0259721Y0030134D01*
X0259779Y0030244D01*
X0259840Y0030351D01*
X0259905Y0030457D01*
X0259973Y0030560D01*
X0260044Y0030661D01*
X0260118Y0030760D01*
X0260195Y0030857D01*
X0260276Y0030951D01*
X0260359Y0031042D01*
X0260445Y0031131D01*
X0260534Y0031217D01*
X0260625Y0031300D01*
X0260719Y0031381D01*
X0260816Y0031458D01*
X0260915Y0031532D01*
X0261016Y0031603D01*
X0261119Y0031671D01*
X0261225Y0031736D01*
X0261332Y0031797D01*
X0261442Y0031855D01*
X0261553Y0031909D01*
X0261665Y0031960D01*
X0261780Y0032008D01*
X0261895Y0032051D01*
X0262012Y0032091D01*
X0262131Y0032128D01*
X0262250Y0032160D01*
X0262370Y0032189D01*
X0262491Y0032214D01*
X0262613Y0032236D01*
X0262736Y0032253D01*
X0262858Y0032267D01*
X0262982Y0032276D01*
X0263105Y0032282D01*
X0263229Y0032284D01*
X0278977Y0032284D01*
X0279101Y0032282D01*
X0279224Y0032276D01*
X0279348Y0032267D01*
X0279470Y0032253D01*
X0279593Y0032236D01*
X0279715Y0032214D01*
X0279836Y0032189D01*
X0279956Y0032160D01*
X0280075Y0032128D01*
X0280194Y0032091D01*
X0280311Y0032051D01*
X0280426Y0032008D01*
X0280541Y0031960D01*
X0280653Y0031909D01*
X0280764Y0031855D01*
X0280874Y0031797D01*
X0280981Y0031736D01*
X0281087Y0031671D01*
X0281190Y0031603D01*
X0281291Y0031532D01*
X0281390Y0031458D01*
X0281487Y0031381D01*
X0281581Y0031300D01*
X0281672Y0031217D01*
X0281761Y0031131D01*
X0281847Y0031042D01*
X0281930Y0030951D01*
X0282011Y0030857D01*
X0282088Y0030760D01*
X0282162Y0030661D01*
X0282233Y0030560D01*
X0282301Y0030457D01*
X0282366Y0030351D01*
X0282427Y0030244D01*
X0282485Y0030134D01*
X0282539Y0030023D01*
X0282590Y0029911D01*
X0282638Y0029796D01*
X0282681Y0029681D01*
X0282721Y0029564D01*
X0282758Y0029445D01*
X0282790Y0029326D01*
X0282819Y0029206D01*
X0282844Y0029085D01*
X0282866Y0028963D01*
X0282883Y0028840D01*
X0282897Y0028718D01*
X0282906Y0028594D01*
X0282912Y0028471D01*
X0282914Y0028347D01*
X0282912Y0028223D01*
X0282906Y0028100D01*
X0282897Y0027976D01*
X0282883Y0027854D01*
X0282866Y0027731D01*
X0282844Y0027609D01*
X0282819Y0027488D01*
X0282790Y0027368D01*
X0282758Y0027249D01*
X0282721Y0027130D01*
X0282681Y0027013D01*
X0282638Y0026898D01*
X0282590Y0026783D01*
X0282539Y0026671D01*
X0282485Y0026560D01*
X0282427Y0026450D01*
X0282366Y0026343D01*
X0282301Y0026237D01*
X0282233Y0026134D01*
X0282162Y0026033D01*
X0282088Y0025934D01*
X0282011Y0025837D01*
X0281930Y0025743D01*
X0281847Y0025652D01*
X0281761Y0025563D01*
X0281672Y0025477D01*
X0281581Y0025394D01*
X0281487Y0025313D01*
X0281390Y0025236D01*
X0281291Y0025162D01*
X0281190Y0025091D01*
X0281087Y0025023D01*
X0280981Y0024958D01*
X0280874Y0024897D01*
X0280764Y0024839D01*
X0280653Y0024785D01*
X0280541Y0024734D01*
X0280426Y0024686D01*
X0280311Y0024643D01*
X0280194Y0024603D01*
X0280075Y0024566D01*
X0279956Y0024534D01*
X0279836Y0024505D01*
X0279715Y0024480D01*
X0279593Y0024458D01*
X0279470Y0024441D01*
X0279348Y0024427D01*
X0279224Y0024418D01*
X0279101Y0024412D01*
X0278977Y0024410D01*
X0288820Y0035097D02*
X0253565Y0035097D01*
X0253939Y0035595D02*
X0288820Y0035595D01*
X0288820Y0036094D02*
X0254315Y0036094D01*
X0254813Y0036592D02*
X0288820Y0036592D01*
X0288820Y0037091D02*
X0255312Y0037091D01*
X0255916Y0037589D02*
X0288820Y0037589D01*
X0288820Y0038088D02*
X0256582Y0038088D01*
X0257398Y0038586D02*
X0288775Y0038586D01*
X0288599Y0039085D02*
X0258311Y0039085D01*
X0259643Y0039583D02*
X0288224Y0039583D01*
X0287367Y0040082D02*
X0262159Y0040082D01*
D18*
X0349135Y0322166D03*
X0356221Y0322166D03*
M02*
